<?xml version="1.0" encoding="utf-8"?>
<!-- Generator: Adobe Illustrator 21.1.0, SVG Export Plug-In . SVG Version: 6.00 Build 0)  -->
<svg version="1.1" id="Capa_1" xmlns="http://www.w3.org/2000/svg" xmlns:xlink="http://www.w3.org/1999/xlink" x="0px" y="0px"
	 viewBox="0 0 470.5 470.5" style="enable-background:new 0 0 470.5 470.5;" xml:space="preserve">
<style type="text/css">
	.st0{fill:#545454;}
	.st1{fill:none;stroke:#02894B;stroke-width:12;stroke-miterlimit:10;}
</style>
<g>
	<path class="st0" d="M445.6,277.2c0-13.5-10.9-24.4-24.4-24.4c-3.6,0-7.1,0.8-10.2,2.2c-5.2-6.6-11-13.2-17.3-19.8
		c20.3-21.4,35.2-42.8,43.3-62c9.2-21.8,9.6-41.1,1.2-55.6c-8.4-14.6-25.3-23.8-48.8-26.8c-20.7-2.6-46.6-0.3-75.3,6.5
		c-5.1-17.1-11.1-32.5-17.9-45.7c4.8-4.5,7.7-10.8,7.7-17.8c0-13.5-11-24.4-24.4-24.4c-4.6,0-8.8,1.3-12.5,3.5
		C256.8,4.3,245.8,0,234.6,0c-16.8,0-33.3,10-47.6,28.9c-12.6,16.6-23.6,40.2-32,68.5c-28.7-6.8-54.7-9.1-75.3-6.5
		c-23.5,3-40.4,12.2-48.8,26.8c-8.4,14.6-8,33.8,1.2,55.6c8.1,19.2,23,40.6,43.3,62c-20.3,21.4-35.2,42.8-43.3,62
		c-9.2,21.8-9.6,41.1-1.2,55.6c7.4,12.8,20.8,21.3,39.9,25.3c1.2,12.4,11.6,22,24.3,22c12.2,0,22.4-9,24.1-20.7
		c11.3-1.2,23.3-3.3,35.8-6.3c8.4,28.3,19.4,51.9,32,68.5c14.3,18.9,30.8,28.9,47.6,28.9c16.8,0,33.3-10,47.6-28.9
		c12.6-16.6,23.6-40.2,32-68.5c20.9,5,40.4,7.5,57.5,7.5c6.3,0,12.3-0.3,17.8-1c23.5-3,40.4-12.2,48.8-26.8
		c8.6-14.8,8-34.4-1.7-56.7C442.1,291.7,445.6,284.8,445.6,277.2z M435.6,277.2c0,7.9-6.5,14.4-14.4,14.4c-7.9,0-14.4-6.5-14.4-14.4
		s6.5-14.4,14.4-14.4C429.2,262.8,435.6,269.3,435.6,277.2z M429.6,122.6c13.6,23.5-2.4,62.7-42.8,105.4
		c-16.5-16.5-35.6-32.5-57-47.8c-2.6-26.2-6.9-50.8-12.9-73.3C374.1,93.4,416.1,99.1,429.6,122.6z M307.2,361.1
		c-19.5-5.2-39.9-12.4-60.7-21.5c12.4-6,24.8-12.6,37-19.6c12.2-7.1,24.1-14.5,35.4-22.2C316.4,320.3,312.5,341.5,307.2,361.1z
		 M161.9,361.1c-5.2-19.6-9.2-40.8-11.8-63.3c11.3,7.7,23.2,15.2,35.4,22.2c12.1,7,24.5,13.6,37,19.6
		C201.8,348.6,181.5,355.8,161.9,361.1z M161.9,109.4c19.6,5.2,39.9,12.4,60.7,21.4c-12.4,6-24.8,12.6-37,19.6
		c-12.2,7.1-24.1,14.5-35.4,22.2C152.8,150.2,156.7,129,161.9,109.4z M190.6,311.4c-14.5-8.4-28.6-17.4-41.8-26.6
		c-1.4-16.2-2.2-32.8-2.2-49.5c0-16.7,0.7-33.3,2.2-49.5c13.2-9.3,27.2-18.2,41.8-26.6c14.4-8.3,29.2-16,44-22.9
		c14.8,6.9,29.5,14.5,43.9,22.9c14.5,8.4,28.6,17.4,41.8,26.6c1.4,16.2,2.2,32.8,2.2,49.5c0,16.7-0.7,33.3-2.2,49.5
		c-13.2,9.3-27.2,18.2-41.8,26.6c-14.4,8.3-29.2,16-43.9,22.9C219.8,327.4,205,319.7,190.6,311.4z M138.2,277
		c-18.2-13.5-34.6-27.5-48.9-41.8c14.3-14.3,30.7-28.3,48.9-41.8c-1,13.7-1.5,27.8-1.5,41.8C136.7,249.3,137.2,263.3,138.2,277z
		 M307.2,109.4c5.2,19.6,9.2,40.8,11.8,63.3c-11.3-7.7-23.2-15.2-35.4-22.2c-12.1-7-24.5-13.6-37-19.6
		C267.3,121.9,287.7,114.7,307.2,109.4z M331,193.4c18.2,13.5,34.6,27.5,48.9,41.8c-14.3,14.3-30.7,28.3-48.9,41.8
		c1-13.7,1.5-27.7,1.5-41.8C332.5,221.2,332,207.2,331,193.4z M294,33.8c0,7.9-6.5,14.4-14.4,14.4s-14.4-6.5-14.4-14.4
		s6.5-14.4,14.4-14.4S294,25.9,294,33.8z M234.6,10c8.5,0,16.9,3.3,25.1,9.8c-2.8,4-4.5,8.8-4.5,14.1c0,13.5,11,24.4,24.4,24.4
		c2.8,0,5.6-0.5,8.1-1.4c6.3,12.4,12,26.8,16.8,42.9c-22.5,6-46,14.6-69.9,25.4c-23.9-10.9-47.4-19.4-69.9-25.4
		C181.5,43.5,207.4,10,234.6,10z M39.5,122.6C53.1,99.1,95,93.4,152.2,107c-6,22.5-10.4,47.1-12.9,73.3
		c-21.4,15.3-40.5,31.3-57,47.8C41.9,185.3,25.9,146.1,39.5,122.6z M95,390.2c-7.9,0-14.4-6.5-14.4-14.4s6.5-14.4,14.4-14.4
		c7.9,0,14.4,6.5,14.4,14.4C109.4,383.7,103,390.2,95,390.2z M95,351.4c-10.8,0-20,7-23.2,16.8c-15.7-3.4-26.5-10.2-32.3-20.3
		c-13.6-23.5,2.4-62.7,42.8-105.4c16.5,16.5,35.6,32.5,57,47.8c2.6,26.1,6.9,50.8,12.9,73.3c-11.8,2.8-23.1,4.8-33.6,6
		C115.8,359.1,106.3,351.4,95,351.4z M234.6,460.5c-27.1,0-53.1-33.5-69.9-89.8c22.5-6,46-14.6,69.9-25.5
		c23.9,10.9,47.4,19.4,69.9,25.5C287.7,427,261.7,460.5,234.6,460.5z M429.6,347.9c-13.6,23.5-55.5,29.3-112.7,15.6
		c6-22.5,10.4-47.1,12.9-73.3c21.3-15.3,40.5-31.3,57-47.8c5.9,6.2,11.3,12.4,16.2,18.6c-3.9,4.3-6.2,10-6.2,16.2
		c0,13.5,11,24.4,24.4,24.4c2.2,0,4.4-0.3,6.5-0.9C435.8,319.8,436.5,336,429.6,347.9z"/>
	<circle class="st1" cx="95.4" cy="375.6" r="19.1"/>
	<circle class="st1" cx="279.4" cy="34" r="19.1"/>
	<circle class="st1" cx="421.3" cy="277.2" r="19.1"/>
</g>
</svg>
