<?xml version="1.0" encoding="utf-8"?>
<!-- Generator: Adobe Illustrator 21.1.0, SVG Export Plug-In . SVG Version: 6.00 Build 0)  -->
<svg version="1.1" id="Capa_1" xmlns="http://www.w3.org/2000/svg" xmlns:xlink="http://www.w3.org/1999/xlink" x="0px" y="0px"
	 viewBox="0 0 440.4 440.4" style="enable-background:new 0 0 440.4 440.4;" xml:space="preserve">
<style type="text/css">
	.st0{fill:#545454;}
	.st1{fill:#02894B;}
</style>
<path class="st0" d="M377.7,99.5c1-4.3,1.5-8.7,1.5-13.1c0-31.3-25.5-56.8-56.8-56.8c-22.7,0-43,13.7-51.9,33.9
	c-17.4-26.3-46.7-42.3-78.9-42.3c-38,0-72.3,22.9-87.1,57.5c-9-3.6-18.4-5.4-28.2-5.4C34.2,73.4,0,107.6,0,149.7
	c0,16.8,5.3,32.7,15.4,46c8.8,11.7,21,20.7,34.7,25.7c-0.5,2.9-0.7,5.9-0.7,8.8c0,31.3,25.5,56.8,56.8,56.8c9.1,0,18-2.2,26-6.3
	c13.1,24,38.4,39.2,66,39.2c29.6,0,56.1-17.3,68.3-43.7c10.3,9.2,23.7,14.3,37.7,14.3c14.2,0,27.8-5.3,38.3-14.9
	c9.1-8.4,15.2-19.3,17.4-31.4c2.6,0.3,5.1,0.4,7.7,0.4c40.2,0,72.9-32.7,72.9-72.9C440.4,135.1,413.3,104.5,377.7,99.5z
	 M367.5,234.6c-3.6,0-7.3-0.3-11-1c-1.4-0.2-2.8,0.1-3.9,0.9c-1.1,0.8-1.8,2.1-1.9,3.5c-2.2,24.2-22.3,42.4-46.5,42.4
	c-13.7,0-26.7-6-35.7-16.5c-1.2-1.4-3-2-4.8-1.7s-3.2,1.6-3.8,3.3c-9,26.5-33.8,44.3-61.7,44.3c-25.5,0-48.8-15-59.3-38.2
	c-0.6-1.3-1.8-2.3-3.1-2.7c-0.5-0.1-0.9-0.2-1.4-0.2c-1,0-1.9,0.3-2.7,0.8c-7.6,4.9-16.3,7.5-25.4,7.5c-25.8,0-46.8-21-46.8-46.8
	c0-3.7,0.4-7.4,1.3-11c0.6-2.6-0.9-5.2-3.4-6C29.4,204.9,10,178.8,10,149.7c0-36.6,29.8-66.3,66.3-66.3c10.1,0,19.8,2.2,28.8,6.6
	c1.3,0.6,2.7,0.7,4.1,0.1c1.3-0.5,2.3-1.6,2.8-2.9c12.1-33.4,44.1-55.9,79.7-55.9c32.2,0,61.2,17.9,75.7,46.7c1,1.9,3,3,5.1,2.7
	c2.1-0.3,3.8-1.8,4.2-3.9c4.5-21.5,23.8-37.1,45.7-37.1c25.8,0,46.8,21,46.8,46.8c0,5.4-0.9,10.7-2.8,15.8c-0.5,1.5-0.3,3.1,0.5,4.5
	s2.3,2.1,3.9,2.2c33.3,1.8,59.5,29.4,59.5,62.8C430.4,206.4,402.2,234.6,367.5,234.6z"/>
<path class="st1" d="M204.9,118c-0.2,0-0.4,0-0.6,0c-24.8,0-45.1,20-45.5,44.8c-0.1,9.1,2.4,17.9,7.3,25.4c6.5,10,9.9,21.4,9.9,33.1
	v7.2c0,15.6,12.7,28.2,28.2,28.2s28.2-12.7,28.2-28.2v-7.1c0-11.5,3.5-23,10.1-33.4c4.7-7.3,7.1-15.7,7.1-24.4
	C249.8,138.7,229.6,118.3,204.9,118z M222.5,228.5c0,10.1-8.2,18.2-18.2,18.2s-18.2-8.2-18.2-18.2v-7.2c0-2.1-0.1-4.1-0.3-6.1h37.1
	c-0.2,2-0.3,4.1-0.3,6.1V228.5z M234.2,182.5c-4.6,7.2-7.8,14.8-9.7,22.7h-15.2v-18.6l13.5-11.7c2.1-1.8,2.3-5,0.5-7.1
	c-1.8-2.1-5-2.3-7.1-0.5l-11.9,10.4l-11.9-10.4c-2.1-1.8-5.2-1.6-7.1,0.5s-1.6,5.2,0.5,7.1l13.5,11.7v18.6h-15.2
	c-1.9-7.9-5.1-15.5-9.6-22.4c-3.8-5.9-5.8-12.8-5.7-19.8c0.3-19.4,16.2-35,35.5-35c0.2,0,0.3,0,0.5,0c19.3,0.3,35,16.2,35,35.5
	C239.8,170.2,237.9,176.8,234.2,182.5z"/>
<path class="st1" d="M204.3,104.6c2.8,0,5-2.2,5-5V75.1c0-2.8-2.2-5-5-5s-5,2.2-5,5v24.5C199.3,102.4,201.5,104.6,204.3,104.6z"/>
<path class="st1" d="M151.7,127l-21.2-12.2c-2.4-1.4-5.4-0.6-6.8,1.8c-1.4,2.4-0.6,5.4,1.8,6.8l21.2,12.2c0.8,0.5,1.6,0.7,2.5,0.7
	c1.7,0,3.4-0.9,4.3-2.5C154.9,131.5,154.1,128.4,151.7,127z"/>
<path class="st1" d="M283,202.8l-21.2-12.2c-2.4-1.4-5.5-0.6-6.8,1.8c-1.4,2.4-0.6,5.4,1.8,6.8l21.2,12.2c0.8,0.5,1.6,0.7,2.5,0.7
	c1.7,0,3.4-0.9,4.3-2.5C286.2,207.3,285.4,204.2,283,202.8z"/>
<path class="st1" d="M146.7,190.6l-21.2,12.2c-2.4,1.4-3.2,4.4-1.8,6.8c0.9,1.6,2.6,2.5,4.3,2.5c0.8,0,1.7-0.2,2.5-0.7l21.2-12.2
	c2.4-1.4,3.2-4.4,1.8-6.8C152.2,190.1,149.1,189.2,146.7,190.6z"/>
<path class="st1" d="M278,114.8L256.8,127c-2.4,1.4-3.2,4.4-1.8,6.8c0.9,1.6,2.6,2.5,4.3,2.5c0.8,0,1.7-0.2,2.5-0.7l21.2-12.2
	c2.4-1.4,3.2-4.4,1.8-6.8C283.5,114.3,280.4,113.4,278,114.8z"/>
<path class="st0" d="M325.4,346.4c0-19.4-15.8-35.2-35.2-35.2S255,327,255,346.4s15.8,35.2,35.2,35.2S325.4,365.8,325.4,346.4z
	 M290.2,371.6c-13.9,0-25.2-11.3-25.2-25.2c0-13.9,11.3-25.2,25.2-25.2s25.2,11.3,25.2,25.2C315.4,360.3,304.1,371.6,290.2,371.6z"
	/>
<path class="st0" d="M323.7,385c-9.4,0-17.1,7.7-17.1,17.1s7.7,17.1,17.1,17.1s17.1-7.7,17.1-17.1S333.1,385,323.7,385z
	 M323.7,409.1c-3.9,0-7.1-3.2-7.1-7.1s3.2-7.1,7.1-7.1s7.1,3.2,7.1,7.1S327.6,409.1,323.7,409.1z"/>
</svg>
