<?xml version="1.0" encoding="utf-8"?>
<!-- Generator: Adobe Illustrator 21.1.0, SVG Export Plug-In . SVG Version: 6.00 Build 0)  -->
<svg version="1.1" id="Capa_1" xmlns="http://www.w3.org/2000/svg" xmlns:xlink="http://www.w3.org/1999/xlink" x="0px" y="0px"
	 viewBox="0 0 426.9 426.9" style="enable-background:new 0 0 426.9 426.9;" xml:space="preserve">
<style type="text/css">
	.st0{fill:#02894B;}
	.st1{fill:#545454;}
</style>
<path class="st0" d="M213.5,17.5c-108.1,0-196,87.9-196,196c0,108.1,87.9,196,196,196s196-87.9,196-196
	C409.5,105.4,321.5,17.5,213.5,17.5z M213.5,399.5c-102.6,0-186-83.4-186-186s83.4-186,186-186s186,83.4,186,186
	S316,399.5,213.5,399.5z"/>
<path class="st1" d="M213.5,0C95.8,0,0,95.8,0,213.5c0,57,22.2,110.6,62.5,150.9c40.3,40.3,93.9,62.5,150.9,62.5
	c117.7,0,213.5-95.8,213.5-213.5S331.2,0,213.5,0z M213.5,416.9C101.3,416.9,10,325.7,10,213.5S101.3,10,213.5,10
	c112.2,0,203.5,91.3,203.5,203.5S325.7,416.9,213.5,416.9z"/>
<path class="st1" d="M213.5,42.2C119,42.2,42.2,119,42.2,213.5S119,384.7,213.5,384.7s171.2-76.8,171.2-171.2S307.9,42.2,213.5,42.2
	z M213.5,374.7c-88.9,0-161.2-72.3-161.2-161.2S124.6,52.2,213.5,52.2s161.2,72.3,161.2,161.2S302.4,374.7,213.5,374.7z"/>
<path class="st0" d="M210.6,85.4l4.3-4.3v24.7c0,2.8,2.2,5,5,5s5-2.2,5-5V69c0-2-1.2-3.8-3.1-4.6c-1.9-0.8-4-0.3-5.4,1.1l-12.9,12.9
	c-2,2-2,5.1,0,7.1C205.4,87.3,208.6,87.3,210.6,85.4z"/>
<path class="st0" d="M362.9,206.1c0-8.8-7.2-16-16-16s-16,7.2-16,16c0,2.8,2.2,5,5,5s5-2.2,5-5c0-3.3,2.7-6,6-6s6,2.7,6,6
	c0,0.8-0.2,1.6-0.5,2.4h-4c-2.8,0-5,2.2-5,5s2.2,5,5,5h4c0.3,0.7,0.5,1.5,0.5,2.4c0,3.3-2.7,6-6,6s-6-2.7-6-6c0-2.8-2.2-5-5-5
	s-5,2.2-5,5c0,8.8,7.2,16,16,16s16-7.2,16-16c0-2.6-0.6-5.1-1.8-7.4C362.3,211.2,362.9,208.7,362.9,206.1z"/>
<path class="st0" d="M215.3,334.6h-7.8v-4.2c0-2.3,1.9-4.2,4.2-4.2h3.6c1.1,0,2.2,0.4,3,1.2c2,2,5.1,2,7.1,0c2-2,2-5.1,0-7.1
	c-2.7-2.7-6.2-4.2-10-4.2h-3.6c-7.8,0-14.2,6.4-14.2,14.2v18.4c0,7.8,6.4,14.2,14.2,14.2h3.6c7.8,0,14.2-6.4,14.2-14.2
	S223.1,334.6,215.3,334.6z M215.3,352.9h-3.6c-2.3,0-4.2-1.9-4.2-4.2v-4.2h7.8c2.3,0,4.2,1.9,4.2,4.2S217.6,352.9,215.3,352.9z"/>
<path class="st0" d="M96,222.6v-18.4c0-7.8-6.4-14.2-14.2-14.2h-3.6c-7.8,0-14.2,6.4-14.2,14.2s6.4,14.2,14.2,14.2H86v4.2
	c0,2.3-1.9,4.2-4.2,4.2h-3.6c-1.1,0-2.2-0.4-3-1.2c-2-2-5.1-2-7.1,0c-2,2-2,5.1,0,7.1c2.7,2.7,6.2,4.2,10,4.2h3.6
	C89.6,236.8,96,230.5,96,222.6z M86,208.5h-7.8c-2.3,0-4.2-1.9-4.2-4.2s1.9-4.2,4.2-4.2h3.6c2.3,0,4.2,1.9,4.2,4.2
	C86,204.3,86,208.5,86,208.5z"/>
<path class="st1" d="M152,85.8c-1.4-2.4-4.4-3.2-6.8-1.8c-2.4,1.4-3.2,4.4-1.8,6.8l13.4,23.2c0.9,1.6,2.6,2.5,4.3,2.5
	c0.8,0,1.7-0.2,2.5-0.7c2.4-1.4,3.2-4.4,1.8-6.8L152,85.8z"/>
<path class="st1" d="M283.1,312.9c-1.4-2.4-4.4-3.2-6.8-1.8c-2.4,1.4-3.2,4.4-1.8,6.8l13.4,23.2c0.9,1.6,2.6,2.5,4.3,2.5
	c0.8,0,1.7-0.2,2.5-0.7c2.4-1.4,3.2-4.4,1.8-6.8L283.1,312.9z"/>
<path class="st1" d="M120.4,150.3l-23.2-13.4c-2.4-1.4-5.4-0.6-6.8,1.8c-1.4,2.4-0.6,5.4,1.8,6.8l23.2,13.4c0.8,0.5,1.6,0.7,2.5,0.7
	c1.7,0,3.4-0.9,4.3-2.5C123.7,154.7,122.8,151.6,120.4,150.3z"/>
<path class="st1" d="M347.5,281.4L324.4,268c-2.4-1.4-5.5-0.6-6.8,1.8c-1.4,2.4-0.6,5.4,1.8,6.8l23.2,13.4c0.8,0.5,1.6,0.7,2.5,0.7
	c1.7,0,3.4-0.9,4.3-2.5C350.7,285.8,349.9,282.8,347.5,281.4z"/>
<path class="st1" d="M115.4,268l-23.2,13.4c-2.4,1.4-3.2,4.4-1.8,6.8c0.9,1.6,2.6,2.5,4.3,2.5c0.8,0,1.7-0.2,2.5-0.7l23.2-13.4
	c2.4-1.4,3.2-4.4,1.8-6.8C120.9,267.4,117.8,266.6,115.4,268z"/>
<path class="st1" d="M321.9,159.6c0.8,0,1.7-0.2,2.5-0.7l23.2-13.4c2.4-1.4,3.2-4.4,1.8-6.8c-1.4-2.4-4.4-3.2-6.8-1.8l-23.2,13.4
	c-2.4,1.4-3.2,4.4-1.8,6.8C318.5,158.7,320.1,159.6,321.9,159.6z"/>
<path class="st1" d="M163.5,311.1c-2.4-1.4-5.4-0.6-6.8,1.8l-13.4,23.2c-1.4,2.4-0.6,5.4,1.8,6.8c0.8,0.5,1.6,0.7,2.5,0.7
	c1.7,0,3.4-0.9,4.3-2.5l13.4-23.2C166.7,315.5,165.9,312.5,163.5,311.1z"/>
<path class="st1" d="M294.6,84c-2.4-1.4-5.5-0.6-6.8,1.8L274.4,109c-1.4,2.4-0.6,5.4,1.8,6.8c0.8,0.5,1.6,0.7,2.5,0.7
	c1.7,0,3.4-0.9,4.3-2.5l13.4-23.2C297.9,88.4,297,85.4,294.6,84z"/>
<path class="st0" d="M250.5,208.5h-17.9c-1.8-6.9-7.2-12.3-14.1-14.1v-63.7c0-2.8-2.2-5-5-5s-5,2.2-5,5v63.7
	c-8.5,2.2-14.7,9.9-14.7,19.1c0,10.9,8.9,19.7,19.7,19.7c9.1,0,16.8-6.3,19.1-14.7h17.9c2.8,0,5-2.2,5-5S253.2,208.5,250.5,208.5z
	 M213.5,223.2c-5.4,0-9.7-4.4-9.7-9.7s4.4-9.7,9.7-9.7c5.4,0,9.7,4.4,9.7,9.7S218.8,223.2,213.5,223.2z"/>
</svg>
