<?xml version="1.0" encoding="utf-8"?>
<!-- Generator: Adobe Illustrator 19.2.0, SVG Export Plug-In . SVG Version: 6.00 Build 0)  -->
<svg version="1.1" id="Capa_1" xmlns="http://www.w3.org/2000/svg" xmlns:xlink="http://www.w3.org/1999/xlink" x="0px" y="0px"
	 viewBox="0 0 480 480" style="enable-background:new 0 0 480 480;" xml:space="preserve">
<style type="text/css">
	.st0{fill:#02894B;}
	.st1{fill:#545454;}
</style>
<path class="st0" d="M424,120v-16H80c-22.1,0-40,17.9-40,40s17.9,40,40,40h344v-16H88v-48H424z M72,166.5c-9.3-3.3-16-12.1-16-22.5
	s6.7-19.2,16-22.5V166.5z"/>
<g>
	<g>
		<path class="st1" d="M472,256c4.4,0,8-3.6,8-8v-48c0-4.4-3.6-8-8-8h-11c-15.5-30-15.5-66,0-96h11c3.1,0,5.9-1.8,7.2-4.5
			c1.3-2.8,1-6.1-1-8.5c-16.5-20.6-16.5-49.4,0-70c1.9-2.4,2.3-5.7,1-8.5C477.9,1.8,475.1,0,472,0H72C54.4,0,40,14.4,40,32v32
			c0,9.2,4,17.5,10.3,23.4C29.9,98.1,16,119.4,16,144c0,19.1,8.5,36.3,21.8,48H32c-17.6,0-32,14.4-32,32c0,9.6,4.3,18.1,11.1,24
			C4.3,253.9,0,262.4,0,272v32c0,17.6,14.4,32,32,32h0.2C12.7,350.6,0,373.8,0,400c0,44.1,35.9,80,80,80h392c3,0,5.7-1.6,7.1-4.2
			s1.2-5.8-0.4-8.2c-27.4-41-27.4-94.1,0-135.1c1.6-2.5,1.8-5.6,0.4-8.2S475,320,472,320h-27.8c-13.6-19.4-13.6-44.6,0-64H472z
			 M56,32c0-8.8,7.2-16,16-16h385.4c-10.1,20.2-10.1,43.8,0,64H72c-8.8,0-16-7.2-16-16V32z M32,144c0-26.5,21.5-48,48-48h363.1
			c-13.2,30.5-13.2,65.5,0,96H80C53.5,192,32,170.5,32,144z M32,320c-8.8,0-16-7.2-16-16v-32c0-8.8,7.2-16,16-16h393.5
			c-10.1,20.2-10.1,43.8,0,64H88h-8H32z M458,336c-21.1,40.1-21.1,87.9,0,128H80c-35.3,0-64-28.7-64-64s28.7-64,64-64h8H458z
			 M32,240c-8.8,0-16-7.2-16-16s7.2-16,16-16h432v32H32z"/>
	</g>
</g>
<g>
	<g>
		<path class="st0" d="M432,368v-16H80c-26.5,0-48,21.5-48,48s21.5,48,48,48h352v-16H80v-64H432z M64,427.5
			c-9.5-5.6-16-15.8-16-27.5s6.5-22,16-27.5V427.5z"/>
	</g>
</g>
<g>
	<g>
		<path class="st0" d="M408,280v-16H40c-4.4,0-8,3.6-8,8v32c0,4.4,3.6,8,8,8h368v-16H48v-16H408z"/>
	</g>
</g>
<g>
	<g>
		<path class="st0" d="M440,40V24H72c-4.4,0-8,3.6-8,8v32c0,4.4,3.6,8,8,8h368V56H80V40H440z"/>
	</g>
</g>
</svg>
