<?xml version="1.0" encoding="utf-8"?>
<!-- Generator: Adobe Illustrator 21.1.0, SVG Export Plug-In . SVG Version: 6.00 Build 0)  -->
<svg version="1.1" id="Capa_1" xmlns="http://www.w3.org/2000/svg" xmlns:xlink="http://www.w3.org/1999/xlink" x="0px" y="0px"
	 viewBox="0 0 512 512" style="enable-background:new 0 0 512 512;" xml:space="preserve">
<style type="text/css">
	.st0{fill:#02894B;}
	.st1{fill:#545454;}
</style>
<g>
	<g>
		<path class="st0" d="M244.2,80L244.2,80c-2.3,0-4,1.8-4,4c0,2.2,1.8,4,4,4c2.2,0,4-1.8,4-4C248.2,81.8,246.4,80,244.2,80z"/>
	</g>
</g>
<g>
	<g>
		<path class="st0" d="M256.2,88L256.2,88c-2.3,0-4,1.8-4,4s1.8,4,4,4c2.2,0,4-1.8,4-4S258.4,88,256.2,88z"/>
	</g>
</g>
<g>
	<g>
		<path class="st0" d="M268.2,80L268.2,80c-2.3,0-4,1.8-4,4c0,2.2,1.8,4,4,4c2.2,0,4-1.8,4-4C272.2,81.8,270.4,80,268.2,80z"/>
	</g>
</g>
<g>
	<g>
		<path class="st0" d="M268.2,96L268.2,96c-2.3,0-4,1.8-4,4c0,2.2,1.8,4,4,4c2.2,0,4-1.8,4-4C272.2,97.8,270.4,96,268.2,96z"/>
	</g>
</g>
<g>
	<g>
		<path class="st0" d="M244.2,96L244.2,96c-2.3,0-4,1.8-4,4c0,2.2,1.8,4,4,4c2.2,0,4-1.8,4-4C248.2,97.8,246.4,96,244.2,96z"/>
	</g>
</g>
<g>
	<g>
		<path class="st1" d="M356,224H156c-2.2,0-4,1.8-4,4v200c0,2.2,1.8,4,4,4h200c2.2,0,4-1.8,4-4V228C360,225.8,358.2,224,356,224z
			 M352,424H160V232h192V424z"/>
	</g>
</g>
<g>
	<g>
		<path class="st1" d="M324,256H188c-2.2,0-4,1.8-4,4v136c0,2.2,1.8,4,4,4h136c2.2,0,4-1.8,4-4V260C328,257.8,326.2,256,324,256z
			 M320,392H192V264h128V392z"/>
	</g>
</g>
<g>
	<g>
		<path class="st0" d="M256,272c-30.9,0-56,25.1-56,56s25.1,56,56,56c30.9,0,56-25.1,56-56S286.8,272,256,272z M256,376
			c-26.5,0-48-21.5-48-48s21.5-48,48-48c26.5,0,48,21.5,48,48S282.4,376,256,376z"/>
	</g>
</g>
<g>
	<g>
		<path class="st1" d="M196,416c-2.2,0-4,1.8-4,4v8c0,2.2,1.8,4,4,4s4-1.8,4-4v-8C200,417.7,198.2,416,196,416z"/>
	</g>
</g>
<g>
	<g>
		<path class="st1" d="M220,416c-2.2,0-4,1.8-4,4v8c0,2.2,1.8,4,4,4s4-1.8,4-4v-8C224,417.7,222.2,416,220,416z"/>
	</g>
</g>
<g>
	<g>
		<path class="st1" d="M244,416c-2.2,0-4,1.8-4,4v8c0,2.2,1.8,4,4,4s4-1.8,4-4v-8C248,417.7,246.2,416,244,416z"/>
	</g>
</g>
<g>
	<g>
		<path class="st1" d="M268,416c-2.2,0-4,1.8-4,4v8c0,2.2,1.8,4,4,4s4-1.8,4-4v-8C272,417.7,270.2,416,268,416z"/>
	</g>
</g>
<g>
	<g>
		<path class="st1" d="M292,416c-2.2,0-4,1.8-4,4v8c0,2.2,1.8,4,4,4s4-1.8,4-4v-8C296,417.7,294.2,416,292,416z"/>
	</g>
</g>
<g>
	<g>
		<path class="st1" d="M316,416c-2.2,0-4,1.8-4,4v8c0,2.2,1.8,4,4,4s4-1.8,4-4v-8C320,417.7,318.2,416,316,416z"/>
	</g>
</g>
<g>
	<g>
		<path class="st1" d="M340,240c-2.2,0-4,1.8-4,4v168c0,2.2,1.8,4,4,4s4-1.8,4-4V244C344,241.8,342.2,240,340,240z"/>
	</g>
</g>
<g>
	<g>
		<path class="st1" d="M172,240c-2.2,0-4,1.8-4,4v168c0,2.2,1.8,4,4,4s4-1.8,4-4V244C176,241.8,174.2,240,172,240z"/>
	</g>
</g>
<g>
	<g>
		<path class="st1" d="M172,168c-2.2,0-4,1.8-4,4v40c0,2.2,1.8,4,4,4s4-1.8,4-4v-40C176,169.8,174.2,168,172,168z"/>
	</g>
</g>
<g>
	<g>
		<path class="st1" d="M340,192H172c-2.2,0-4,1.8-4,4s1.8,4,4,4h168c2.2,0,4-1.8,4-4S342.2,192,340,192z"/>
	</g>
</g>
<g>
	<g>
		<path class="st1" d="M340,168c-2.2,0-4,1.8-4,4v40c0,2.2,1.8,4,4,4s4-1.8,4-4v-40C344,169.8,342.2,168,340,168z"/>
	</g>
</g>
<g>
	<g>
		<path class="st1" d="M220,208c-2.2,0-4,1.8-4,4v16c0,2.2,1.8,4,4,4s4-1.8,4-4v-16C224,209.8,222.2,208,220,208z"/>
	</g>
</g>
<g>
	<g>
		<path class="st1" d="M196,208c-2.2,0-4,1.8-4,4v16c0,2.2,1.8,4,4,4s4-1.8,4-4v-16C200,209.8,198.2,208,196,208z"/>
	</g>
</g>
<g>
	<g>
		<path class="st1" d="M244,208c-2.2,0-4,1.8-4,4v16c0,2.2,1.8,4,4,4s4-1.8,4-4v-16C248,209.8,246.2,208,244,208z"/>
	</g>
</g>
<g>
	<g>
		<path class="st1" d="M268,208c-2.2,0-4,1.8-4,4v16c0,2.2,1.8,4,4,4s4-1.8,4-4v-16C272,209.8,270.2,208,268,208z"/>
	</g>
</g>
<g>
	<g>
		<path class="st1" d="M292,208c-2.2,0-4,1.8-4,4v16c0,2.2,1.8,4,4,4s4-1.8,4-4v-16C296,209.8,294.2,208,292,208z"/>
	</g>
</g>
<g>
	<g>
		<path class="st1" d="M316,208c-2.2,0-4,1.8-4,4v16c0,2.2,1.8,4,4,4s4-1.8,4-4v-16C320,209.8,318.2,208,316,208z"/>
	</g>
</g>
<g>
	<g>
		<path class="st1" d="M156,208c-2.2,0-4,1.8-4,4v16c0,2.2,1.8,4,4,4s4-1.8,4-4v-16C160,209.8,158.2,208,156,208z"/>
	</g>
</g>
<g>
	<g>
		<path class="st1" d="M356,208c-2.2,0-4,1.8-4,4v16c0,2.2,1.8,4,4,4s4-1.8,4-4v-16C360,209.8,358.2,208,356,208z"/>
	</g>
</g>
<g>
	<g>
		<path class="st0" d="M256,288c-2.2,0-4,1.8-4,4v36c0,2.2,1.8,4,4,4c2.2,0,4-1.8,4-4v-36C260,289.8,258.2,288,256,288z"/>
	</g>
</g>
<g>
	<g>
		<path class="st0" d="M284.3,350.6l-25.5-25.5c-1.6-1.6-4.1-1.6-5.7,0c-1.6,1.6-1.6,4.1,0,5.7l25.5,25.5c0.8,0.8,1.8,1.2,2.8,1.2
			s2-0.4,2.8-1.2C285.8,354.7,285.8,352.2,284.3,350.6z"/>
	</g>
</g>
<g>
	<g>
		<path class="st1" d="M222.5,136.9c-1.7-1.4-4.2-1.1-5.6,0.6l-32,40c-1.4,1.7-1.1,4.2,0.6,5.6c0.7,0.6,1.6,0.9,2.5,0.9
			c1.2,0,2.3-0.5,3.1-1.5l32-40C224.5,140.8,224.2,138.2,222.5,136.9z"/>
	</g>
</g>
<g>
	<g>
		<path class="st1" d="M292,136h-72c-2.2,0-4,1.8-4,4c0,2.2,1.8,4,4,4h72c2.2,0,4-1.8,4-4C296,137.8,294.2,136,292,136z"/>
	</g>
</g>
<g>
	<g>
		<path class="st1" d="M327.1,177.5l-32-40c-1.4-1.7-3.9-2-5.6-0.6c-1.7,1.4-2,3.9-0.6,5.6l32,40c0.8,1,2,1.5,3.1,1.5
			c0.9,0,1.8-0.3,2.5-0.9C328.2,181.7,328.5,179.2,327.1,177.5z"/>
	</g>
</g>
<g>
	<g>
		<path class="st1" d="M220,112c-2.2,0-4,1.8-4,4v24c0,2.2,1.8,4,4,4s4-1.8,4-4v-24C224,113.8,222.2,112,220,112z"/>
	</g>
</g>
<g>
	<g>
		<path class="st1" d="M292,112c-2.2,0-4,1.8-4,4v24c0,2.2,1.8,4,4,4s4-1.8,4-4v-24C296,113.8,294.2,112,292,112z"/>
	</g>
</g>
<g>
	<g>
		<path class="st1" d="M292,112h-72c-2.2,0-4,1.8-4,4s1.8,4,4,4h72c2.2,0,4-1.8,4-4S294.2,112,292,112z"/>
	</g>
</g>
<g>
	<g>
		<path class="st1" d="M257.5,24.3c-2-0.8-4.4,0.1-5.2,2.2l-36,88c-0.8,2,0.1,4.4,2.2,5.2c0.5,0.2,1,0.3,1.5,0.3
			c1.6,0,3.1-0.9,3.7-2.5l36-88C260.5,27.5,259.5,25.1,257.5,24.3z"/>
	</g>
</g>
<g>
	<g>
		<path class="st1" d="M295.7,114.5l-36-88c-0.8-2-3.2-3-5.2-2.2c-2,0.8-3,3.2-2.2,5.2l36,88c0.6,1.5,2.1,2.5,3.7,2.5
			c0.5,0,1-0.1,1.5-0.3C295.5,118.9,296.5,116.5,295.7,114.5z"/>
	</g>
</g>
<g>
	<g>
		<path d="M256,0c-2.2,0-4,1.8-4,4v24c0,2.2,1.8,4,4,4c2.2,0,4-1.8,4-4V4C260,1.8,258.2,0,256,0z"/>
	</g>
</g>
<g>
	<g>
		<path class="st1" d="M172,440c-2.2,0-4,1.8-4,4v64c0,2.2,1.8,4,4,4s4-1.8,4-4v-64C176,441.7,174.2,440,172,440z"/>
	</g>
</g>
<g>
	<g>
		<path class="st1" d="M188,440c-2.2,0-4,1.8-4,4v64c0,2.2,1.8,4,4,4c2.2,0,4-1.8,4-4v-64C192,441.7,190.2,440,188,440z"/>
	</g>
</g>
<g>
	<g>
		<path class="st1" d="M340,440c-2.2,0-4,1.8-4,4v64c0,2.2,1.8,4,4,4s4-1.8,4-4v-64C344,441.7,342.2,440,340,440z"/>
	</g>
</g>
<g>
	<g>
		<path class="st1" d="M324,440c-2.2,0-4,1.8-4,4v64c0,2.2,1.8,4,4,4c2.2,0,4-1.8,4-4v-64C328,441.7,326.2,440,324,440z"/>
	</g>
</g>
<g>
	<g>
		<path class="st0" d="M292,464c-2.2,0-4,1.8-4,4v40c0,2.2,1.8,4,4,4s4-1.8,4-4v-40C296,465.7,294.2,464,292,464z"/>
	</g>
</g>
<g>
	<g>
		<path class="st0" d="M256,488c-2.2,0-4,1.8-4,4v16c0,2.2,1.8,4,4,4c2.2,0,4-1.8,4-4v-16C260,489.7,258.2,488,256,488z"/>
	</g>
</g>
<g>
	<g>
		<path class="st0" d="M220,464c-2.2,0-4,1.8-4,4v40c0,2.2,1.8,4,4,4s4-1.8,4-4v-40C224,465.7,222.2,464,220,464z"/>
	</g>
</g>
<g>
	<g>
		<path class="st0" d="M230.8,153.2c-1.6-1.6-4.1-1.6-5.7,0l-8,8c-1.6,1.6-1.6,4.1,0,5.7c0.8,0.8,1.8,1.2,2.8,1.2c1,0,2-0.4,2.8-1.2
			l8-8C232.4,157.3,232.4,154.7,230.8,153.2z"/>
	</g>
</g>
<g>
	<g>
		<path class="st0" d="M238.8,161.2l-8-8c-1.6-1.6-4.1-1.6-5.7,0s-1.6,4.1,0,5.7l8,8c0.8,0.8,1.8,1.2,2.8,1.2s2-0.4,2.8-1.2
			C240.4,165.3,240.4,162.7,238.8,161.2z"/>
	</g>
</g>
<g>
	<g>
		<path class="st0" d="M258.8,169.2c-1.6-1.6-4.1-1.6-5.7,0l-8,8c-1.6,1.6-1.6,4.1,0,5.7c0.8,0.8,1.8,1.2,2.8,1.2c1,0,2-0.4,2.8-1.2
			l8-8C260.4,173.2,260.4,170.7,258.8,169.2z"/>
	</g>
</g>
<g>
	<g>
		<path class="st0" d="M266.8,177.2l-8-8c-1.6-1.6-4.1-1.6-5.7,0c-1.6,1.6-1.6,4.1,0,5.7l8,8c0.8,0.8,1.8,1.2,2.8,1.2
			c1,0,2-0.4,2.8-1.2C268.4,181.2,268.4,178.7,266.8,177.2z"/>
	</g>
</g>
<g>
	<g>
		<path class="st0" d="M286.8,153.2c-1.6-1.6-4.1-1.6-5.7,0l-8,8c-1.6,1.6-1.6,4.1,0,5.7c0.8,0.8,1.8,1.2,2.8,1.2s2-0.4,2.8-1.2l8-8
			C288.4,157.3,288.4,154.7,286.8,153.2z"/>
	</g>
</g>
<g>
	<g>
		<path class="st0" d="M294.8,161.2l-8-8c-1.6-1.6-4.1-1.6-5.7,0s-1.6,4.1,0,5.7l8,8c0.8,0.8,1.8,1.2,2.8,1.2c1,0,2-0.4,2.8-1.2
			C296.4,165.3,296.4,162.7,294.8,161.2z"/>
	</g>
</g>
</svg>
