<?xml version="1.0" encoding="utf-8"?>
<!-- Generator: Adobe Illustrator 21.1.0, SVG Export Plug-In . SVG Version: 6.00 Build 0)  -->
<svg version="1.1" id="Capa_1" xmlns="http://www.w3.org/2000/svg" xmlns:xlink="http://www.w3.org/1999/xlink" x="0px" y="0px"
	 viewBox="0 0 512 512" style="enable-background:new 0 0 512 512;" xml:space="preserve">
<style type="text/css">
	.st0{fill:#02894B;}
	.st1{fill:#545454;}
</style>
<path class="st0" d="M210.4,404.8h-15.5c-12.7,0-23,10.3-23,23V455c0,12.7,10.3,23,23,23h15.5c8.4,0,15.3-6.8,15.3-15.3v-3.9
	c0-4.1-3.4-7.5-7.5-7.5s-7.5,3.4-7.5,7.5v3.9c0,0.1-0.1,0.3-0.3,0.3h-15.5c-4.4,0-8-3.6-8-8v-27.2c0-4.4,3.6-8,8-8h15.5
	c0.1,0,0.3,0.1,0.3,0.3v3.9c0,4.1,3.4,7.5,7.5,7.5s7.5-3.4,7.5-7.5V420C225.6,411.6,218.8,404.8,210.4,404.8z"/>
<path class="st1" d="M198.7,370.8c-38.9,0-70.6,31.7-70.6,70.6s31.7,70.6,70.6,70.6s70.6-31.7,70.6-70.6S237.7,370.8,198.7,370.8z
	 M198.7,497c-30.7,0-55.6-24.9-55.6-55.6s24.9-55.6,55.6-55.6s55.6,24.9,55.6,55.6S229.4,497,198.7,497z"/>
<path class="st0" d="M389.3,242.7h-25.9c-4.1,0-7.5,3.4-7.5,7.5v97.1c0,4.1,3.4,7.5,7.5,7.5h42.1c20.2,0,36.6-16.4,36.6-36.6
	c0-17.6-12.5-32.4-29.1-35.8c2-3.8,3.2-8.1,3.2-12.7C416.2,254.8,404.1,242.7,389.3,242.7z M370.9,257.7h18.4
	c6.6,0,11.9,5.3,11.9,11.9s-5.3,11.9-11.9,11.9h-18.4V257.7z M427.1,318.1c0,11.9-9.7,21.6-21.6,21.6h-34.6v-43.2h34.6
	C417.4,296.5,427.1,306.2,427.1,318.1z"/>
<path class="st0" d="M121.4,247.7l17.7-53.1h66.8l17.7,53.1c1,3.1,4,5.1,7.1,5.1c0.8,0,1.6-0.1,2.4-0.4c3.9-1.3,6.1-5.6,4.7-9.5
	l-19.4-58.1c0-0.1-0.1-0.2-0.1-0.3l-26-78c-2.9-8.6-10.9-14.3-19.9-14.3s-17,5.8-19.9,14.3l-26,78c0,0.1-0.1,0.2-0.1,0.3L107.2,243
	c-1.3,3.9,0.8,8.2,4.7,9.5C115.8,253.7,120.1,251.6,121.4,247.7z M166.9,111.3c0.8-2.4,3.1-4.1,5.7-4.1c2.6,0,4.8,1.6,5.7,4.1
	l22.8,68.3h-56.8L166.9,111.3z"/>
<path class="st1" d="M461.1,198.6c-3.3-2.4-8-1.7-10.5,1.6c-2.4,3.3-1.7,8,1.6,10.5c28,20.5,44.7,53.4,44.7,88
	c0,60.1-48.9,109-109,109c-56.4,0-104-43.8-108.6-99.8c33.3-26.3,56.6-64.7,63.5-108.4c14.2-6.5,29.3-9.7,45.1-9.7
	c15.7,0,30.9,3.3,45.1,9.7c3.8,1.7,8.2,0.1,9.9-3.7c1.7-3.8,0-8.2-3.7-9.9c-16.2-7.4-33.4-11.1-51.3-11.1c-15,0-29.5,2.6-43.3,7.8
	c0.2-3.3,0.3-6.6,0.3-10C345,77.4,267.6,0,172.5,0S0,77.4,0,172.5c0,44.6,17,86.9,47.8,119.2c2.9,3,7.6,3.1,10.6,0.2
	c3-2.9,3.1-7.6,0.2-10.6C30.5,251.9,15,213.2,15,172.5C15,85.7,85.7,15,172.5,15S330,85.7,330,172.5S259.4,330,172.5,330
	c-34.5,0-67.3-11-94.8-31.7c-3.3-2.5-8-1.8-10.5,1.5c-2.5,3.3-1.8,8,1.5,10.5c30.1,22.7,66,34.7,103.8,34.7c34.2,0,66.1-10,93-27.3
	c4.2,27.4,17.5,52.5,38,71.6c23,21.5,53,33.3,84.5,33.3c68.4,0,124-55.6,124-124C512,259.3,493,221.9,461.1,198.6z"/>
</svg>
