<?xml version="1.0" encoding="utf-8"?>
<!-- Generator: Adobe Illustrator 21.1.0, SVG Export Plug-In . SVG Version: 6.00 Build 0)  -->
<svg version="1.1" id="Capa_1" xmlns="http://www.w3.org/2000/svg" xmlns:xlink="http://www.w3.org/1999/xlink" x="0px" y="0px"
	 viewBox="0 0 542.7 542.7" style="enable-background:new 0 0 542.7 542.7;" xml:space="preserve">
<style type="text/css">
	.st0{fill:#545454;}
	.st1{fill:#02894B;}
</style>
<path class="st0" d="M363.2,74.1c-18.5,0-36.4,2.4-53.3,6.8c-28-11-59.3-17.2-92.3-17.2C97.6,63.6,0,145.1,0,245.3
	c0,53.1,27.3,102.8,75.1,137.4v96.4l99.8-55.6c14.1,2.3,28.4,3.5,42.6,3.5c59.5,0,113.4-20,152.8-52.4c9-0.3,18-1.2,26.9-2.6
	l84.3,46.9v-81.5c38.9-28.6,61-69.3,61-113C542.7,141.5,462.1,74.1,363.2,74.1z M217.6,397.7c-14.2,0-28.5-1.3-42.5-4l-5.2-1
	l-65.5,36.5v-62l-6.5-4.3c-43.6-29.1-68.6-72-68.6-117.6c0-84,84.5-152.4,188.3-152.4c16.8,0,33,1.8,48.5,5.1
	c-49.5,26.8-82.4,73.4-82.4,126.4c0,71.6,60.1,131.6,140.3,146.7C293.6,387.9,257,397.7,217.6,397.7z M458.9,317.6l-6.5,4.3v47.2
	l-50-27.8l-0.1,0l-5.1,0.9c-11.2,2.1-22.7,3.2-34,3.2c-1.2,0-2.4-0.1-3.6-0.1c-81.2-1.6-146.6-55.2-146.6-121
	c0-51.1,39.6-94.9,95.3-112.6c14.2-4.5,29.4-7.3,45.4-8.1c3.2-0.2,6.3-0.3,9.6-0.3c82.8,0,150.2,54.3,150.2,121.1
	C513.4,260.5,493.5,294.4,458.9,317.6z"/>
<path class="st1" d="M363.2,74.1c-18.5,0-36.4,2.4-53.3,6.8c-15.6,5.5-29.3,9.7-43.8,17.2c-49.5,26.8-82.4,73.4-82.4,126.4
	c0,71.6,60.1,131.6,140.3,146.7c27.4,4,29.4,4.1,46.5,3.5c9-0.3,18-1.2,26.9-2.6l84.3,46.9v-81.5c38.9-28.6,61-69.3,61-113
	C542.7,141.5,462.1,74.1,363.2,74.1z M458.9,317.6l-6.5,4.3v47.2l-50-27.8l-0.1,0l-5.1,0.9c-11.2,2.1-22.7,3.2-34,3.2
	c-1.2,0-2.4-0.1-3.6-0.1c-81.2-1.6-146.6-55.2-146.6-121c0-51.1,39.6-94.9,95.3-112.6c14.2-4.5,29.4-7.3,45.4-8.1
	c3.2-0.2,6.3-0.3,9.6-0.3c82.8,0,150.2,54.3,150.2,121.1C513.4,260.5,493.5,294.4,458.9,317.6z"/>
</svg>
