<?xml version="1.0" encoding="utf-8"?>
<!-- Generator: Adobe Illustrator 21.1.0, SVG Export Plug-In . SVG Version: 6.00 Build 0)  -->
<svg version="1.1" id="Capa_1" xmlns="http://www.w3.org/2000/svg" xmlns:xlink="http://www.w3.org/1999/xlink" x="0px" y="0px"
	 viewBox="0 0 441 441" style="enable-background:new 0 0 441 441;" xml:space="preserve">
<style type="text/css">
	.st0{fill:#545454;}
	.st1{fill:#02894B;}
</style>
<path class="st0" d="M434.5,155.4c3,0,5.5-2.5,5.5-5.5s-2.5-5.5-5.5-5.5h-84.3V93.7h84.3c3,0,5.5-2.5,5.5-5.5s-2.5-5.5-5.5-5.5
	h-84.3V12.8c0-3-2.5-5.5-5.5-5.5s-5.5,2.5-5.5,5.5v69.9H99.8V12.8c0-3-2.5-5.5-5.5-5.5s-5.5,2.5-5.5,5.5v69.9H4.5
	c-3,0-5.5,2.5-5.5,5.5s2.5,5.5,5.5,5.5h84.3v50.7H4.5c-3,0-5.5,2.5-5.5,5.5s2.5,5.5,5.5,5.5h84.3v169H4.5c-3,0-5.5,2.5-5.5,5.5
	s2.5,5.5,5.5,5.5h84.3v92.8c0,3,2.5,5.5,5.5,5.5s5.5-2.5,5.5-5.5v-92.8h239.3v92.8c0,3,2.5,5.5,5.5,5.5s5.5-2.5,5.5-5.5v-92.8h84.3
	c3,0,5.5-2.5,5.5-5.5s-2.5-5.5-5.5-5.5h-84.3v-169H434.5z M339.2,93.7v50.7H168.7l18.7-50.7H339.2z M99.8,93.7h75.9L157,144.4H99.8
	L99.8,93.7L99.8,93.7z M152.9,155.4L99.8,299.2V155.4H152.9z M164.9,324.4l13.1-37.9h81.6l13,37.9H164.9z M339.2,324.4h-55
	l-15.6-45.2c-0.8-2.2-2.9-3.7-5.2-3.7H174c-2.3,0-4.4,1.5-5.2,3.7l-15.6,45.2h-51l62.4-169h46.4L183.8,235c-0.6,1.7-0.3,3.5,0.7,5
	c1,1.4,2.7,2.3,4.5,2.3h59.5c1.8,0,3.4-0.9,4.5-2.3c1-1.4,1.3-3.3,0.7-5l-27.3-79.6h112.8V324.4z M218.7,167.1l22,64.2h-44.1
	L218.7,167.1z"/>
<path class="st1" d="M100.8,15.2v-2.4c0-2.3-1.4-4.3-3.4-5.1C98.5,10.2,99.7,12.7,100.8,15.2z"/>
<path class="st1" d="M210.6,156.8l-26.8,78.2c-0.3,0.9-0.4,1.8-0.3,2.7c0.5,2.8,2.9,4.6,5.4,4.6l59.4,0c0.9,0,1.9-0.2,2.7-0.6
	c2.5-1.4,3.5-4.2,2.6-6.7l-26.9-78.2c-0.6-1.6-1.4-3.2-2.5-4.6c-1.3-1.6-3.2-3.2-5.6-3.2s-4.3,1.6-5.6,3.2
	C212,153.6,211.2,155.1,210.6,156.8z M240.8,231.3h-44.1l22-64.2L240.8,231.3z"/>
<path class="st1" d="M284.2,324.4l-15.6-45.2c-0.8-2.2-2.9-3.7-5.2-3.7H174c-2.3,0-4.4,1.5-5.2,3.7l-15.6,45.2h-51l62.4-169l4.1-11
	l18.7-50.7l4-11l-11.5,0l-4.3,11L157,144.4l-4.1,11L99.8,299.2l-11,25.3l-5.6,11l16.6,0h60.8l4.2-11l13.1-37.9h81.6l13,37.9l3.6,11
	h12C288.1,335.3,284.2,324.4,284.2,324.4z"/>
</svg>
