<?xml version="1.0" encoding="utf-8"?>
<!-- Generator: Adobe Illustrator 19.2.0, SVG Export Plug-In . SVG Version: 6.00 Build 0)  -->
<svg version="1.1" id="Capa_1" xmlns="http://www.w3.org/2000/svg" xmlns:xlink="http://www.w3.org/1999/xlink" x="0px" y="0px"
	 viewBox="0 0 512 512" style="enable-background:new 0 0 512 512;" xml:space="preserve">
<style type="text/css">
	.st0{fill:#545454;}
	.st1{fill:#02894B;}
</style>
<path class="st0" d="M512,388.3V46.9c0-4.7-3.8-8.5-8.5-8.5H8.5c-4.7,0-8.5,3.8-8.5,8.5v341.3c0,4.7,3.8,8.5,8.5,8.5h303.4
	l-20.8,38.6c-1.6,2.9-1.3,6.4,0.6,9.1c2,2.7,5.3,3.9,8.5,3.3l38.2-7.4l21.6,29.6c1.6,2.2,4.2,3.5,6.9,3.5c0.5,0,1,0,1.5-0.1
	c3.2-0.6,5.8-2.9,6.7-6.1l20.2-70.6h11.5l20.2,70.6c0.9,3.1,3.5,5.5,6.7,6.1c0.5,0.1,1,0.1,1.5,0.1c2.7,0,5.3-1.3,6.9-3.5l21.6-29.6
	l38.2,7.4c3.2,0.6,6.6-0.7,8.5-3.3c2-2.7,2.2-6.2,0.6-9.1l-20.8-38.6h13.3C508.2,396.8,512,393,512,388.3z M363.5,445.9L349.1,426
	c-2-2.7-5.3-4-8.5-3.4l-25.8,5l42.5-78.9c9,6.3,19.3,10.6,30.5,12.6L363.5,445.9z M339.5,345.6l-255-0.1
	c-1.6-8.4-5.5-15.9-11.5-21.9c-5.9-5.9-13.5-9.8-21.8-11.4L51.3,123c17.2-3.2,30.1-16.1,33.4-33.3L427.5,90
	c3.4,16.8,16.4,29.7,33.3,33v114.8c-14.1-17.4-35.6-28.6-59.7-28.6c-42.4,0-76.8,34.5-76.8,76.8c0,19.7,7.5,37.7,19.8,51.3
	L339.5,345.6z M400.2,379.7l0.9-3.1l0.9,3.1H400.2z M405.4,345.4c-2.1,0.2-4.3,0.1-6.4,0c-32-1.1-57.7-27.4-57.7-59.6
	c0-32.9,26.8-59.7,59.7-59.7s59.7,26.8,59.7,59.7C460.8,317.1,436.4,343.2,405.4,345.4z M461.6,422.7c-3.3-0.6-6.6,0.7-8.5,3.4
	l-14.5,19.9l-24.1-84.4c11.2-2,21.5-6.4,30.5-12.7l42.5,78.9L461.6,422.7z M494.9,379.7H481l-22.9-42.6
	c12.3-13.7,19.8-31.7,19.8-51.3c0-2.3-0.1-4.6-0.4-6.8c0.1-0.6,0.4-1.1,0.4-1.7V116c0-0.2,0-0.5,0-0.8c0-4.7-3.8-8.5-8.5-8.5
	c-14.4,0-25.6-11.2-25.7-25.6c0-0.2,0-0.3,0-0.4c-0.2-4.6-4-8.5-8.7-8.1c-0.8,0-1.5,0.1-2.2,0.3L76.8,72.5h0c-4.7,0-8.5,3.8-8.5,8.5
	c0,0.5,0,0.9,0.1,1.3c-0.6,14.1-11.2,24.3-25.6,24.3c-4.7,0-8.5,3.8-8.5,8.5L34.1,320c0,2.3,0.9,4.4,2.5,6c1.6,1.6,3.8,2.5,6,2.5
	c14.8,0,25.6,10.7,25.6,25.5c0,4.7,3.8,8.5,8.5,8.5l253.5,0.1l-9.2,17.1H17.1V55.5h477.9L494.9,379.7L494.9,379.7z"/>
<g>
	<g>
		<path class="st1" d="M401.1,243.2c-23.5,0-42.7,19.1-42.7,42.7c0,23.5,19.1,42.7,42.7,42.7c23.5,0,42.7-19.1,42.7-42.7
			C443.7,262.3,424.6,243.2,401.1,243.2z M401.1,311.5c-14.1,0-25.6-11.5-25.6-25.6s11.5-25.6,25.6-25.6s25.6,11.5,25.6,25.6
			S415.2,311.5,401.1,311.5z"/>
	</g>
</g>
<g>
	<g>
		<path class="st1" d="M401.1,123.7H110.9c-4.7,0-8.5,3.8-8.5,8.5s3.8,8.5,8.5,8.5h290.1c4.7,0,8.5-3.8,8.5-8.5
			S405.8,123.7,401.1,123.7z"/>
	</g>
</g>
<g>
	<g>
		<path class="st1" d="M401.1,174.9H110.9c-4.7,0-8.5,3.8-8.5,8.5s3.8,8.5,8.5,8.5h290.1c4.7,0,8.5-3.8,8.5-8.5
			S405.8,174.9,401.1,174.9z"/>
	</g>
</g>
<g>
	<g>
		<path class="st1" d="M256,226.1H110.9c-4.7,0-8.5,3.8-8.5,8.5s3.8,8.5,8.5,8.5H256c4.7,0,8.5-3.8,8.5-8.5S260.7,226.1,256,226.1z"
			/>
	</g>
</g>
<g>
	<g>
		<path class="st1" d="M256,277.3H110.9c-4.7,0-8.5,3.8-8.5,8.5s3.8,8.5,8.5,8.5H256c4.7,0,8.5-3.8,8.5-8.5S260.7,277.3,256,277.3z"
			/>
	</g>
</g>
</svg>
