<?xml version="1.0" encoding="utf-8"?>
<!-- Generator: Adobe Illustrator 19.2.0, SVG Export Plug-In . SVG Version: 6.00 Build 0)  -->
<svg version="1.1" id="Слой_1" xmlns="http://www.w3.org/2000/svg" xmlns:xlink="http://www.w3.org/1999/xlink" x="0px" y="0px"
	 viewBox="0 0 512 512" style="enable-background:new 0 0 512 512;" xml:space="preserve">
<style type="text/css">
	.st0{fill:#545454;}
	.st1{fill:#02894B;}
</style>
<path class="st0" d="M508.2,215.3L508.2,215.3l-65.4-43.3V27.1c0-4.7-3.8-8.5-8.5-8.5H77.6c-4.7,0-8.5,3.8-8.5,8.5v144.9L3.8,215.3
	l0,0c-2.3,1.5-3.8,4.1-3.8,7.1v262.6c0,4.7,3.8,8.5,8.5,8.5h495c4.7,0,8.5-3.8,8.5-8.5V222.3C512,219.4,510.5,216.8,508.2,215.3
	L508.2,215.3z M69.2,244.9l-26.6-14.1h26.6V244.9z M17,236.4l195,103.4L17,469.1V236.4z M256,331l219.4,145.4H36.6L256,331L256,331z
	 M300,339.9l195-103.4v232.7L300,339.9L300,339.9z M442.8,230.8h26.6l-26.6,14.1V230.8z M475.4,213.9h-32.6v-21.6L475.4,213.9z
	 M425.9,35.5v218.4l-141.9,75.3l-23.3-15.4c-2.8-1.9-6.5-1.9-9.4,0l-23.3,15.4L86.1,253.9V35.5L425.9,35.5L425.9,35.5z M69.2,213.9
	H36.6l32.5-21.6V213.9z"/>
<path class="st1" d="M256,241.6h67.6c4.7,0,8.5-3.8,8.5-8.5s-3.8-8.5-8.5-8.5H256c-32.6,0-59.1-26.5-59.1-59.1V163
	c0-32.6,26.5-59.1,59.1-59.1s59.1,26.5,59.1,59.1v6.3c0,7.1-5.7,12.8-12.8,12.8s-12.8-5.7-12.8-12.8v-11.9
	c0-20.2-16.4-36.6-36.6-36.6s-36.6,16.4-36.6,36.6c0,20.2,16.4,36.6,36.6,36.6c9.2,0,17.7-3.4,24.1-9.1c5.3,8.5,14.6,14.1,25.3,14.1
	c16.4,0,29.7-13.3,29.7-29.7V163c0-41.9-34.1-76-76-76s-76,34.1-76,76v2.5C180,207.5,214.1,241.6,256,241.6L256,241.6z M252.9,177.1
	c-10.8,0-19.7-8.8-19.7-19.7s8.8-19.7,19.7-19.7s19.7,8.8,19.7,19.7S263.7,177.1,252.9,177.1z"/>
</svg>
