<?xml version="1.0" encoding="utf-8"?>
<!-- Generator: Adobe Illustrator 19.2.0, SVG Export Plug-In . SVG Version: 6.00 Build 0)  -->
<svg version="1.1" id="Capa_1" xmlns="http://www.w3.org/2000/svg" xmlns:xlink="http://www.w3.org/1999/xlink" x="0px" y="0px"
	 viewBox="0 0 512 512" style="enable-background:new 0 0 512 512;" xml:space="preserve">
<style type="text/css">
	.st0{fill:#006B2D;}
	.st1{fill:#545454;}
</style>
<path class="st0" d="M447.5,425.7C487.6,380.5,512,321.1,512,256c0-67.7-26.4-129.3-69.5-175.1v0c0-0.1-0.1-0.1-0.1-0.1
	C397.6,33.1,334.7,2.6,264.9,0.2l0,0l-5-0.1C258.6,0,257.3,0,256,0c-1.3,0-2.6,0-3.9,0.1l-5,0.1l0,0C177.3,2.6,114.5,33.1,69.6,80.8
	c0,0-0.1,0.1-0.1,0.1c0,0,0,0,0,0C26.4,126.7,0,188.3,0,256c0,65.1,24.4,124.5,64.5,169.7c0.1,0.1,0.1,0.2,0.1,0.2
	c0.2,0.2,0.4,0.3,0.6,0.5c45.1,50.4,109.7,82.8,181.9,85.3l0,0l5,0.1c1.3,0,2.6,0.1,3.9,0.1c1.3,0,2.6,0,3.9-0.1l5-0.1l0,0
	c72.3-2.5,137-35,182.1-85.5c0.1-0.2,0.3-0.2,0.4-0.4C447.4,425.9,447.4,425.8,447.5,425.7z M17.9,264.8h106
	c1,37.4,8.3,73.8,21.3,107.8c-25.1,9.1-49.1,21.3-71.6,36.5C40.5,369.8,19.9,319.6,17.9,264.8z M78.4,97.3
	c22,14.3,45.3,25.7,69.7,34.3c-14.9,36.3-23.2,75.3-24.3,115.6h-106C20,189.7,42.5,137.4,78.4,97.3z M494.1,247.2h-106
	c-1.1-40.3-9.3-79.3-24.3-115.6c24.4-8.5,47.8-20,69.7-34.3C469.5,137.4,492,189.7,494.1,247.2z M247.2,132.1
	c-25.5-0.7-50.6-4.5-74.8-11.3c17.9-36.7,43.2-69.8,74.8-97.4V132.1z M247.2,149.7v97.4H141.5c1.1-38.4,9.1-75.6,23.5-110.1
	C191.6,144.7,219.1,149,247.2,149.7z M264.8,149.7c28.1-0.8,55.6-5,82.2-12.7c14.4,34.5,22.4,71.7,23.5,110.1H264.8V149.7z
	 M264.8,132.1V23.3c31.6,27.6,56.9,60.7,74.8,97.4C315.4,127.6,290.3,131.4,264.8,132.1z M356.7,115.4c-17-35.5-40.5-67.9-69.6-95.6
	c51.7,6.8,98.2,30.1,134,64.6C400.8,97.3,379.2,107.6,356.7,115.4z M155.3,115.4c-22.5-7.8-44.1-18.1-64.4-31
	c35.8-34.5,82.3-57.8,134-64.6C195.8,47.5,172.2,79.9,155.3,115.4z M141.5,264.8h105.7v88.6c-29.2,0.8-57.8,5.3-85.3,13.6
	C149.5,334.8,142.5,300.3,141.5,264.8z M247.2,371.1v117.6c-33.8-29.5-60.4-65.4-78.4-105.2C194.1,376,220.3,371.9,247.2,371.1z
	 M264.8,488.7V371.1c26.8,0.8,53.1,4.9,78.4,12.4C325.2,423.3,298.7,459.1,264.8,488.7z M264.8,353.4v-88.6h105.7
	c-1,35.5-8,69.9-20.4,102.2C322.6,358.8,294,354.2,264.8,353.4z M388.2,264.8h106c-2,54.8-22.6,105-55.7,144.3
	c-22.5-15.2-46.5-27.4-71.6-36.5C379.9,338.6,387.2,302.2,388.2,264.8z M85.5,422.4c20.9-13.9,43.1-25,66.4-33.4
	c17.2,38.5,41.8,73.6,73,103.3C170.6,485.1,122,459.7,85.5,422.4z M287.1,492.3c31.2-29.7,55.8-64.8,73-103.3
	c23.2,8.3,45.5,19.5,66.4,33.4C390,459.7,341.4,485.1,287.1,492.3z"/>
<path class="st1" d="M442.5,80.9L442.5,80.9c0-0.1-0.1-0.1-0.1-0.1C397.6,33.1,334.7,2.6,264.9,0.2l0,0l-5-0.1
	C258.6,0,257.3,0,256,0s-2.6,0-3.9,0.1l-5,0.1l0,0C177.3,2.6,114.5,33.1,69.6,80.8c0,0-0.1,0.1-0.1,0.1c0,0,0,0,0,0
	C26.4,126.7,0,188.3,0,256c0,65.1,24.4,124.5,64.5,169.7c0.1,0.1,0.1,0.2,0.1,0.2c0.2,0.2,0.4,0.3,0.6,0.5
	c45.1,50.4,109.7,82.8,181.9,85.3l0,0l5,0.1c1.3,0,2.6,0.1,3.9,0.1s2.6,0,3.9-0.1l5-0.1l0,0c72.3-2.5,137-35,182.1-85.5
	c0.1-0.2,0.3-0.2,0.4-0.4c0.1-0.1,0.1-0.2,0.1-0.2C487.6,380.5,512,321.1,512,256C512,188.3,485.6,126.7,442.5,80.9z M85.5,422.4
	c-10.5-10.5,0,0-12-13.2c-33.1-39.3-53.7-89.5-55.7-144.3v-17.7c2-55.1,22.8-105.6,56.3-145c1.8-2.1,3.6-4.2,5.3-6.5
	c2.4-3.2,6.4-6.5,11.5-11.3c35.8-34.5,82.3-57.8,134-64.6c-29.1,27.7-52.7,60.1-69.6,95.6c-4.7,9.8-2.3,5.1-7.2,16.2
	c-14.9,36.3-23.2,75.3-24.3,115.6v17.7c1,37.4,8.3,73.8,21.3,107.8c4.3,9.3,1.7,6.1,6.8,16.3c17.2,38.5,41.8,73.6,73,103.3
	C170.6,485.1,122,459.7,85.5,422.4z M247.2,132.1v17.7v97.4v17.7v88.6v17.7v117.6c-33.8-29.5-60.4-65.4-78.4-105.2
	c-3.6-8.4,0,0-6.9-16.4c-12.4-32.3-19.4-66.7-20.4-102.2v-17.7c1.1-38.4,9.1-75.6,23.5-110.1c1.5-5.5,1.5-5.5,7.4-16.3
	c17.9-36.7,43.2-69.8,74.8-97.4V132.1z M264.8,488.7V371.1v-17.7v-88.6v-17.7v-97.4v-17.7V23.3c31.6,27.6,56.9,60.7,74.8,97.4
	c4.1,9.7,3.4,6.2,7.4,16.3c14.4,34.5,22.4,71.7,23.5,110.1l0,17.7c-1,35.5-8,69.9-20.4,102.2c-5.1,12.7-1.5,4-6.9,16.4
	C325.2,423.3,298.7,459.1,264.8,488.7z M438.4,409.1c-6.9,8.4,0,0-12,13.2c-36.5,37.4-85.1,62.8-139.4,69.9
	c31.2-29.7,55.8-64.8,73-103.3c4.8-11.2,1.9-4.5,6.8-16.3c13-34.1,20.3-70.4,21.3-107.8c0,0,0.5-8.3,0-17.7
	c-1.5-25.5-9.3-79.3-24.3-115.6c-2.7-8.7-2.4-6.6-7.2-16.2c-17-35.5-40.5-67.9-69.6-95.6c51.7,6.8,98.2,30.1,134,64.6
	c9.9,9.7,3,3.9,12.5,13c35.9,40.1,58.4,92.4,60.5,149.9v17.7C492.1,319.6,471.5,369.8,438.4,409.1z"/>
</svg>
