<?xml version="1.0" encoding="utf-8"?>
<!-- Generator: Adobe Illustrator 19.2.0, SVG Export Plug-In . SVG Version: 6.00 Build 0)  -->
<svg version="1.1" id="Capa_1" xmlns="http://www.w3.org/2000/svg" xmlns:xlink="http://www.w3.org/1999/xlink" x="0px" y="0px"
	 viewBox="0 0 479.3 237.5" style="enable-background:new 0 0 479.3 237.5;" xml:space="preserve">
<style type="text/css">
	.st0{fill:#545454;}
	.st1{fill:#02894B;}
</style>
<path class="st0" d="M112.3,149.4c0.1,0.7,1,6.4,1.1,7.5c0-0.3-0.1-0.5-0.1-0.8c0.1,1.1,0.2,1.2,0.1,0.8c0.5,4.4,0.6,8.8,0.4,13.1
	c1.7-3,2.7-6.4,2.7-10.1c0-5-1.8-9.5-4.7-13.1C111.9,147.7,112.1,148.6,112.3,149.4z"/>
<path class="st0" d="M241.7,6.8l-2-0.6L0,74.1l88.4,34.1l15,5.8l18.1,7v56.5l2.8,2.3c34.1,27.8,74.1,41.7,114.1,41.7
	s80-13.9,114.1-41.7l2.8-2.3v-55.5l124-47.8L241.7,6.8z M340.2,170.3L340.2,170.3c-61.4,48-142.4,48-203.7,0v-43.5l103.1,39.8
	l100.6-38.8V170.3z M99.7,96.4L47.3,76.3l192.3-54.4l192.3,54.4l-192.3,74.1l-114.1-44"/>
<path class="st1" d="M115.4,145.3l0.2-42.8l-15.8-6.1l0.6,48.9c-7.6,3-13.1,10.4-13.1,19.1c0,8.7,5.4,16.1,13.1,19.1v53.9h15v-53.9
	c7.6-3,13.1-10.4,13.1-19.1C128.4,155.7,123,148.3,115.4,145.3z M107.9,170c-3.1,0-5.6-2.5-5.6-5.6c0-3.1,2.5-5.6,5.6-5.6
	s5.6,2.5,5.6,5.6C113.4,167.5,110.9,170,107.9,170z"/>
<polygon class="st1" points="115.5,102.5 240.1,77.3 238.1,67.8 99.7,96.4 "/>
</svg>
