<?xml version="1.0" encoding="utf-8"?>
<!-- Generator: Adobe Illustrator 19.2.0, SVG Export Plug-In . SVG Version: 6.00 Build 0)  -->
<svg version="1.1" id="Layer_1" xmlns="http://www.w3.org/2000/svg" xmlns:xlink="http://www.w3.org/1999/xlink" x="0px" y="0px"
	 viewBox="0 0 512 512" style="enable-background:new 0 0 512 512;" xml:space="preserve">
<style type="text/css">
	.st0{fill:#545454;}
	.st1{fill:#02894B;}
</style>
<path class="st0" d="M509,31.1L480.9,3c-4-4-10.4-4-14.4,0l-42,42l-4-4c-4-4-10.4-4-14.4,0L78,369.2c-20.6,20.6-36.2,44.8-46.6,71.9
	l-14,36.6c-0.4,1-0.6,2.1-0.6,3.1L3,494.6c-4,4-4,10.4,0,14.4c2,2,4.6,3,7.2,3s5.2-1,7.2-3l13.7-13.7c1.1-0.1,2.1-0.3,3.1-0.6
	l36.6-14c27.2-10.4,51.4-26,71.9-46.6l287.3-287.3c1.9,8.4-3.2,22.8-15.5,35.1l-86.5,86.5c-4,4-4,10.4,0,14.4c2,2,4.6,3,7.2,3
	c2.6,0,5.2-1,7.2-3l86.5-86.5c10.3-10.3,17.6-22.6,20.4-34.7c2.8-11.6,1.2-22.2-4.2-30.1l25.6-25.6c4-4,4-10.4,0-14.4l-4-4l42-42
	C513,41.5,513,35.1,509,31.1z M128.4,419.6c-18.5,18.5-40.3,32.6-64.8,42l-21.4,8.2l8.2-21.4c9.3-24.5,23.5-46.3,42-64.8l11.1-11.1
	l36,36L128.4,419.6z M153.9,394.1l-36-36L413.3,62.7l36,36L153.9,394.1z M452.6,73.1l-13.7-13.7l34.8-34.8l13.7,13.7L452.6,73.1z"/>
<path class="st1" d="M430.2,146.7c1.9,8.4-3.2,22.8-15.5,35.1l-86.5,86.5c-4,4-4,10.4,0,14.4c2,2,4.6,3,7.2,3s5.2-1,7.2-3l86.5-86.5
	c10.3-10.3,17.6-22.6,20.4-34.7c2.8-11.6,1.2-22.2-4.2-30.1L430.2,146.7z"/>
<path class="st1" d="M509,31.1L480.9,3c-4-4-10.4-4-14.4,0l-42,42l14.4,14.4l34.8-34.8l13.7,13.7l-34.8,34.8L467,87.5l42-42
	C513,41.5,513,35.1,509,31.1z"/>
<rect x="118.5" y="357.9" transform="matrix(0.7071 -0.7071 0.7071 0.7071 -233.3848 203.2672)" class="st1" width="20.4" height="50.9"/>
</svg>
