<?xml version="1.0" encoding="utf-8"?>
<!-- Generator: Adobe Illustrator 19.2.0, SVG Export Plug-In . SVG Version: 6.00 Build 0)  -->
<svg version="1.1" id="Capa_1" xmlns="http://www.w3.org/2000/svg" xmlns:xlink="http://www.w3.org/1999/xlink" x="0px" y="0px"
	 viewBox="0 0 512 512" style="enable-background:new 0 0 512 512;" xml:space="preserve">
<style type="text/css">
	.st0{fill:#545454;}
	.st1{fill:#02894B;}
</style>
<path class="st0" d="M404.6,317.2c-10.5-10.9-23.1-16.7-36.5-16.7c-13.3,0-26,5.7-37,16.6l-34.1,34c-2.8-1.5-5.6-2.9-8.3-4.3
	c-3.9-1.9-7.6-3.8-10.7-5.7c-32-20.3-61.1-46.8-88.9-81c-13.5-17.1-22.6-31.4-29.2-46c8.9-8.1,17.1-16.5,25.1-24.6
	c3-3,6.1-6.2,9.1-9.2c22.7-22.7,22.7-52.1,0-74.8l-29.5-29.5c-3.3-3.3-6.8-6.8-10-10.3c-6.5-6.7-13.3-13.6-20.3-20.1
	c-10.5-10.4-23-15.9-36.2-15.9S72,35.1,61.2,45.5c-0.1,0.1-0.1,0.1-0.2,0.2L24.3,82.8C10.4,96.6,2.5,113.5,0.8,133
	c-2.6,31.6,6.7,60.9,13.8,80.2c17.5,47.2,43.7,91,82.7,137.9c47.3,56.5,104.3,101.1,169.3,132.6c24.9,11.8,58,25.7,95.1,28.1
	c2.3,0.1,4.6,0.2,6.8,0.2c25,0,45.9-9,62.4-26.8c0.1-0.2,0.3-0.3,0.4-0.5c5.6-6.8,12.1-13,18.9-19.6c4.6-4.4,9.4-9.1,14-13.9
	c10.7-11.1,16.3-24.1,16.3-37.4c0-13.4-5.7-26.3-16.6-37.1L404.6,317.2z M443.3,431C443.2,431,443.2,431.1,443.3,431
	c-4.2,4.5-8.5,8.6-13.2,13.2c-7,6.7-14.2,13.7-20.9,21.6c-10.9,11.7-23.8,17.2-40.6,17.2c-1.6,0-3.3,0-5-0.1
	c-32.1-2.1-61.9-14.6-84.3-25.3c-61.2-29.6-114.9-71.6-159.5-124.9c-36.8-44.4-61.5-85.5-77.8-129.6c-10-26.9-13.7-47.9-12.1-67.6
	c1.1-12.6,5.9-23.1,14.9-32.1l36.8-36.8c5.3-5,10.9-7.7,16.4-7.7c6.8,0,12.3,4.1,15.8,7.6c0.1,0.1,0.2,0.2,0.3,0.3
	c6.6,6.2,12.9,12.5,19.5,19.3c3.3,3.5,6.8,6.9,10.3,10.5l29.5,29.5c11.5,11.5,11.5,22,0,33.5c-3.1,3.1-6.2,6.3-9.3,9.3
	c-9.1,9.3-17.7,17.9-27.1,26.4c-0.2,0.2-0.4,0.3-0.5,0.5c-9.3,9.3-7.6,18.4-5.6,24.5c0.1,0.3,0.2,0.6,0.3,1
	c7.7,18.6,18.5,36.1,34.9,56.9l0.1,0.1c29.8,36.7,61.3,65.4,96,87.3c4.4,2.8,9,5.1,13.3,7.2c3.9,1.9,7.6,3.8,10.7,5.7
	c0.4,0.2,0.9,0.5,1.3,0.8c3.7,1.8,7.1,2.7,10.7,2.7c9,0,14.6-5.6,16.4-7.5l37-37c3.7-3.7,9.5-8.1,16.3-8.1c6.7,0,12.2,4.2,15.6,7.9
	c0.1,0.1,0.1,0.1,0.2,0.2l59.5,59.5C454.3,408.2,454.3,419.5,443.3,431z"/>
<path class="st1" d="M276.7,121.8c28.3,4.8,54,18.2,74.6,38.7s33.8,46.3,38.7,74.6c1.2,7.1,7.3,12.1,14.4,12.1
	c0.9,0,1.6-0.1,2.5-0.2c8-1.3,13.3-8.9,12-16.9c-5.8-34.3-22-65.5-46.8-90.2c-24.7-24.7-56-41-90.2-46.8c-8-1.3-15.5,4-16.9,11.9
	C263.5,112.8,268.7,120.5,276.7,121.8z"/>
<path class="st1" d="M511.4,225.9c-9.6-56.4-36.2-107.7-77-148.6s-92.2-67.4-148.6-77c-7.9-1.4-15.3,4-16.7,11.9
	c-1.3,8,4,15.5,12,16.9c50.4,8.5,96.3,32.4,132.8,68.8c36.5,36.5,60.3,82.5,68.8,132.8c1.2,7.1,7.3,12.1,14.4,12.1
	c0.9,0,1.6-0.1,2.5-0.2C507.4,241.3,512.8,233.7,511.4,225.9z"/>
</svg>
