<?xml version="1.0" encoding="utf-8"?>
<!-- Generator: Adobe Illustrator 19.2.0, SVG Export Plug-In . SVG Version: 6.00 Build 0)  -->
<svg version="1.1" id="Layer_1" xmlns="http://www.w3.org/2000/svg" xmlns:xlink="http://www.w3.org/1999/xlink" x="0px" y="0px"
	 viewBox="0 0 512 512" style="enable-background:new 0 0 512 512;" xml:space="preserve">
<style type="text/css">
	.st0{fill:#545454;}
	.st1{fill:#02894B;}
</style>
<g>
	<path class="st0" d="M473.1,332.1c9.9-26.2,14.9-53.8,14.9-82.1c0-62-24.1-120.3-68-164.1c-43.8-43.8-102.1-68-164.1-68
		c-28.1,0-55.4,5-81.4,14.7C155.6,11.8,129.1,0,100.6,0C45.1,0,0,45.1,0,100.6c0,29.6,13.2,57.8,35.8,76.8
		c-7.9,23.6-11.9,48-11.9,72.6c0,62,24.1,120.3,68,164.1c43.8,43.8,102.1,68,164.1,68c24.9,0,49.7-4.1,73.8-12.2
		c18.7,26.2,49.3,42.1,81.7,42.1c55.5,0,100.6-45.1,100.6-100.6C512,380.2,497.6,351.2,473.1,332.1z M411.4,490.2
		c-27.8,0-53.8-14.9-67.8-39c-2-3.4-5.6-5.4-9.4-5.4c-1.3,0-2.6,0.2-3.8,0.7c-24.2,9.1-49.2,13.8-74.4,13.8
		c-56.2,0-109-21.9-148.7-61.6C67.6,359,45.7,306.2,45.7,250c0-24.6,4.4-49.1,13.2-72.6c1.7-4.6,0.1-9.8-3.9-12.7
		c-20.8-14.8-33.2-38.8-33.2-64.2c0-43.4,35.3-78.8,78.8-78.8c24.5,0,47.1,11.1,62.2,30.6c3,3.9,8.3,5.3,12.8,3.4
		c25.5-10.6,52.5-16,80.5-16c56.2,0,109,21.9,148.7,61.6c39.7,39.7,61.6,92.5,61.6,148.7c0,28.3-5.5,55.8-16.5,81.7
		c-2.1,4.9-0.3,10.5,4.1,13.4c22.7,14.7,36.3,39.5,36.3,66.3C490.2,454.9,454.9,490.2,411.4,490.2z"/>
	<path class="st1" d="M272.1,215.8c-75.4-14.6-80.3-37.7-62.1-53.7c18.2-16,72.1-23.3,87.2,4.9c14.7,27.2,25.1,38.4,45.4,33.5
		c19.3-4.7,22.1-31.4,14-47.4c-6.6-13-36.3-46.1-94.9-46.1c-58.6,0-120,21.6-120,75.4s55.8,77.5,109.6,85.1
		c53.7,7.7,66.3,30.7,59.3,47.5c-7,16.7-30,32.8-64.9,29.3c-34.9-3.5-51-32.7-55.8-47.5c-4.6-14.2-20.9-16-28.6-15.4
		c-7.7,0.7-32.1,10.5-20.9,44.7c11.2,34.2,47.5,61.4,120,61.4s115.1-44.7,115.1-87.2C375.4,257.7,347.5,230.5,272.1,215.8z"/>
</g>
</svg>
