<?xml version="1.0" encoding="utf-8"?>
<!-- Generator: Adobe Illustrator 19.2.0, SVG Export Plug-In . SVG Version: 6.00 Build 0)  -->
<svg version="1.1" id="Capa_1" xmlns="http://www.w3.org/2000/svg" xmlns:xlink="http://www.w3.org/1999/xlink" x="0px" y="0px"
	 viewBox="0 0 60 60" style="enable-background:new 0 0 60 60;" xml:space="preserve">
<style type="text/css">
	.st0{fill:#02894B;}
	.st1{fill:#545454;}
</style>
<path class="st0" d="M55.5,46.5l-9.8-4.2c-0.2-0.1-0.5-0.4-0.7-0.8l6.5,0c0.1,0,2.8,0.3,5-0.7c0.8-0.4,1.4-1,1.7-1.9
	c0.2-0.9,0.1-1.8-0.4-2.5c-1.9-2.7-6.2-9.6-6.4-16.6c0-0.1-0.4-12.1-12.2-12.2c-1.7,0-3.3,0.3-4.8,0.9c-0.3-0.8-0.8-1.7-1.5-2.5
	c-2.1-2.3-5.4-3.5-9.9-3.5S15.1,3.7,13.1,6c-2.4,2.7-2.1,6-2.1,6.5v5.3c-0.6,0.7-1,1.7-1,2.6v4c0,1.2,0.6,2.4,1.5,3.1
	c0.9,3.6,2.8,6.4,3.5,7.2v3.3c0,1-0.5,1.9-1.4,2.3l-8.9,4.9C1.8,46.9,0,50,0,53.3v4.2h44h2h14v-3.7C60,50.7,58.3,47.9,55.5,46.5z
	 M44,55.5H2v-2.2c0-2.6,1.4-4.9,3.7-6.2l8.9-4.9c1.5-0.8,2.4-2.4,2.4-4.1v-4l-0.2-0.3c0,0-2.5-3-3.4-7.1l-0.1-0.4l-0.3-0.2
	c-0.6-0.4-0.9-1-0.9-1.7v-4c0-0.6,0.2-1.1,0.7-1.5l0.3-0.3v-6.2l0-0.1c0,0-0.3-2.8,1.6-5c1.7-1.9,4.5-2.8,8.4-2.8
	c3.9,0,6.7,1,8.4,2.8c0.8,0.9,1.2,2,1.4,2.9c0,0.1,0,0.1,0,0.2c0,0.1,0,0.1,0,0.2c0,0.1,0,0.2,0,0.2c0,0.1,0,0.1,0,0.2
	c0,0.1,0,0.2,0,0.4c0,0,0,0,0,0c0,0.1,0,0.2,0,0.3c0,0,0,0,0,0.1c0,0.1,0,0.2,0,0.2c0,0,0,0,0,0c0,0.2,0,0.4,0,0.4l0,6.4l0.3,0.3
	c0.4,0.4,0.7,0.9,0.7,1.5v4c0,0.9-0.6,1.6-1.4,1.9l-0.5,0.2L31.9,27c-0.7,2.1-1.6,4-2.8,5.7c-0.3,0.4-0.6,0.8-0.8,1.1L28,34.1v4.1
	c0,0.3,0,0.5,0.1,0.7c0,0.1,0,0.1,0,0.2c0,0.2,0.1,0.4,0.2,0.6c0,0,0,0.1,0,0.1c0.1,0.2,0.2,0.4,0.3,0.6c0,0,0,0,0,0.1
	c0.1,0.3,0.3,0.5,0.5,0.7l0.2,0.3h0c0.3,0.3,0.7,0.6,1.2,0.9l9.6,4.8c2.4,1.2,3.9,3.6,3.9,6.3V55.5z M58,55.5H46v-2
	c0-3.4-1.9-6.5-5-8.1L34.2,42c0.2-0.4,0.2-0.8,0-1.3c-0.2-0.7-0.9-1.2-1.6-1.2h-2.2c0-0.1-0.1-0.2-0.1-0.3c0-0.1-0.1-0.2-0.1-0.3
	C30,38.7,30,38.5,30,38.2v-3.4c0.2-0.3,0.5-0.6,0.7-1c1.2-1.8,2.2-3.7,3-5.8c1.4-0.6,2.3-2,2.3-3.6v-4c0-1-0.4-1.9-1-2.6v-5.3
	c0-0.3,0.1-1.1-0.1-2.1c1.3-0.5,2.7-0.8,4.3-0.8c9.8,0.1,10.2,9.8,10.2,10.2c0.1,7.6,4.7,14.9,6.7,17.7c0.2,0.2,0.2,0.5,0.1,0.8
	c0,0.2-0.2,0.5-0.5,0.6c-1.7,0.7-4,0.5-4.1,0.5h-6.9c-0.6,0-1.2,0.3-1.6,0.9c-0.3,0.5-0.4,1.2-0.1,1.8c0.3,0.6,0.9,1.5,1.8,1.9
	l9.7,4.2c2.1,1,3.4,3.1,3.4,5.5V55.5z"/>
<path class="st1" d="M46,55.5v-2c0-3.4-1.9-6.5-5-8.1L34.2,42c-1.4-0.6-3.6-2-3.8-2.4s-0.1-0.2-0.1-0.3c0-0.1-0.1-0.2-0.1-0.3
	C30,38.7,30,38.5,30,38.2v-3.4c0.2-0.3,0.5-0.6,0.7-1c1.2-1.8,2.2-3.7,3-5.8c1.4-0.6,2.3-2,2.3-3.6v-4c0-1-0.4-1.9-1-2.6v-5.3
	c0-0.3,0.1-1.1-0.1-2.1c-0.2-1.2-0.2-1.2-0.5-1.9c-0.3-0.8-0.8-1.7-1.5-2.5c-2.1-2.3-5.4-3.5-9.9-3.5S15.1,3.7,13.1,6
	c-2.4,2.7-2.1,6-2.1,6.5v5.3c-0.6,0.7-1,1.7-1,2.6v4c0,1.2,0.6,2.4,1.5,3.1c0.9,3.6,2.8,6.4,3.5,7.2v3.3c0,1-0.5,1.9-1.4,2.3
	l-8.9,4.9C1.8,46.9,0,50,0,53.3v4.2h46V55.5z M44,55.5H2v-2.2c0-2.6,1.4-4.9,3.7-6.2l8.9-4.9c1.5-0.8,2.4-2.4,2.4-4.1v-4l-0.2-0.3
	c0,0-2.5-3-3.4-7.1l-0.1-0.4l-0.3-0.2c-0.6-0.4-0.9-1-0.9-1.7v-4c0-0.6,0.2-1.1,0.7-1.5l0.3-0.3v-6.2l0-0.1c0,0-0.3-2.8,1.6-5
	c1.7-1.9,4.5-2.8,8.4-2.8c3.9,0,6.7,1,8.4,2.8c0.8,0.9,1.2,2,1.4,2.9c0,0.1,0,0.1,0,0.2c0,0.1,0,0.1,0,0.2c0,0.1,0,0.2,0,0.2
	c0,0.1,0,0.1,0,0.2c0,0.1,0,0.2,0,0.4c0,0,0,0,0,0c0,0.1,0,0.2,0,0.3c0,0,0,0,0,0.1c0,0.1,0,0.2,0,0.2v0c0,0.2,0,0.4,0,0.4l0,6.4
	l0.3,0.3c0.4,0.4,0.7,0.9,0.7,1.5v4c0,0.9-0.6,1.6-1.4,1.9l-0.5,0.2L31.9,27c-0.7,2.1-1.6,4-2.8,5.7c-0.3,0.4-0.6,0.8-0.8,1.1
	L28,34.1v4.1c0,0.3,0,0.5,0.1,0.7c0,0.1,0,0.1,0,0.2c0,0.2,0.1,0.4,0.2,0.6c0,0,0,0.1,0,0.1c0.1,0.2,0.2,0.4,0.3,0.6c0,0,0,0,0,0.1
	c0.1,0.3,0.3,0.5,0.5,0.7l0.2,0.3h0c0.3,0.3,0.7,0.6,1.2,0.9l9.6,4.8c2.4,1.2,3.9,3.6,3.9,6.3V55.5z"/>
</svg>
