<?xml version="1.0" encoding="utf-8"?>
<!-- Generator: Adobe Illustrator 21.1.0, SVG Export Plug-In . SVG Version: 6.00 Build 0)  -->
<svg version="1.1" id="Capa_1" xmlns="http://www.w3.org/2000/svg" xmlns:xlink="http://www.w3.org/1999/xlink" x="0px" y="0px"
	 viewBox="0 0 463 463" style="enable-background:new 0 0 463 463;" xml:space="preserve">
<style type="text/css">
	.st0{fill:#545454;}
	.st1{fill:#02894B;}
</style>
<path class="st0" d="M462,157H189.4l-21.1-45.6c-2.5-5.3-7.8-8.7-13.6-8.7h-5.3c-5.9,0-11.2,3.4-13.6,8.8L114.9,157H-1v5h113.6
	l-79,172.5c-2.1,4.6-1.7,10,1,14.3c1.1,1.8,2.6,3.3,4.3,4.4H-1v5h463v-5h-40c0.8-0.6,1.6-1.2,2.4-1.9c2.8-2.8,4.4-6.7,4.4-10.7
	l-0.6-110.1c-0.4-39.4-24.4-65-63.4-68.6H462V157z M149.6,162h5.3l42.3,91.3h-89L149.6,162z M65.5,347l27.4-60.1h119.6l27.7,60.1
	c1.2,2.6,3.1,4.7,5.3,6.2H60.2C62.5,351.8,64.3,349.6,65.5,347z M395.1,340.9c0,5.2,2.7,9.7,6.7,12.4h-39.6
	c12.3-2.7,23.3-7.5,32.9-14.3L395.1,340.9z M394.8,287.2c-10.5,24.2-28,35-56.2,35c-16.7,0-34.6-7.4-34.6-28.1c0-20,26.3-23,42-23
	h48.8L394.8,287.2z M282.6,208.9l2.1,2.9c2.4,3.2,6,5.3,10,5.9c4,0.5,8-0.5,11.2-3c17.5-13.5,32.6-19.5,49.1-19.5
	c35,0,39.3,20.3,39.5,35.6v6.7H346c-55.8,0-75.6,29.2-75.6,56.5c0,29.2,19.1,51.9,47.5,59.2h-51.6c1.7-1.1,3.2-2.6,4.4-4.4
	c2.8-4.3,3.1-9.7,1-14.4L191.7,162h153.8c-20.6,1.9-40,10.4-60.1,26.1C279,193.1,277.7,202.4,282.6,208.9z"/>
<path class="st1" d="M266.3,353.3c1.7-1.1,3.2-2.6,4.4-4.4c2.8-4.3,3.1-9.7,1-14.4L191.7,162l-2.3-5l-21.1-45.6
	c-2.5-5.3-7.8-8.7-13.6-8.7h-5.3c-5.9,0-11.2,3.4-13.6,8.8L114.9,157l-2.3,5l-79,172.5c-2.1,4.6-1.7,10,1,14.3
	c1.1,1.8,2.6,3.3,4.3,4.4l21.1,0c2.3-1.5,4.2-3.7,5.4-6.3l27.4-60.1h119.6l27.7,60.1c1.2,2.6,3.1,4.7,5.3,6.2L266.3,353.3z
	 M108.1,253.4l41.4-91.3h5.3l42.3,91.3H108.1z"/>
</svg>
