<?xml version="1.0" encoding="utf-8"?>
<!-- Generator: Adobe Illustrator 21.1.0, SVG Export Plug-In . SVG Version: 6.00 Build 0)  -->
<svg version="1.1" id="Layer_1" xmlns="http://www.w3.org/2000/svg" xmlns:xlink="http://www.w3.org/1999/xlink" x="0px" y="0px"
	 viewBox="0 0 512 512" style="enable-background:new 0 0 512 512;" xml:space="preserve">
<style type="text/css">
	.st0{fill:#02894B;}
	.st1{fill:#545454;}
</style>
<g>
	<g>
		<path class="st0" d="M256,152.5c-72.5,0-131.5,59-131.5,131.5s59,131.5,131.5,131.5s131.5-59,131.5-131.5S328.5,152.5,256,152.5z
			 M256,394.5c-61,0-110.6-49.6-110.6-110.6S195,173.4,256,173.4S366.6,223,366.6,284S317,394.5,256,394.5z"/>
	</g>
</g>
<g>
	<g>
		<path class="st1" d="M256,201.9c-45.2,0-82.1,36.8-82.1,82.1c0,45.2,36.8,82.1,82.1,82.1s82.1-36.8,82.1-82.1
			S301.2,201.9,256,201.9z M256,346.2c-34.3,0-62.2-27.9-62.2-62.2s27.9-62.2,62.2-62.2s62.2,27.9,62.2,62.2
			C318.2,318.3,290.3,346.2,256,346.2z"/>
	</g>
</g>
<path class="st1" d="M478.9,114.3H344.1l-13.8-37.5c-4-11-14.7-18.4-26.4-18.4H208c-11.7,0-22.4,7.4-26.4,18.4l-13.8,37.5h-45.8
	V99.6c0-11.8-9.6-21.5-21.5-21.5H68.8c-11.8,0-21.5,9.6-21.5,21.5v14.7H33.1C14.8,114.3,0,129.2,0,147.4v273.1
	c0,18.2,14.8,33.1,33.1,33.1h445.9c18.2,0,33.1-14.8,33.1-33.1V147.4C512,129.2,497.2,114.3,478.9,114.3z M202.3,84.4
	c0.9-2.4,3.2-4,5.7-4H304c2.5,0,4.8,1.6,5.7,4l11,29.9H191.3L202.3,84.4z M68.3,99.6c0-0.3,0.2-0.6,0.6-0.6h31.7
	c0.3,0,0.6,0.2,0.6,0.6v14.7H68.3V99.6z M22,197.7h32.6v172.5H22V197.7z M490,420.5c0,6.1-4.9,11-11,11H33.1c-6.1,0-11-4.9-11-11
	v-28.3h43.7c6.1,0,11-4.9,11-11V186.7c0-6.1-4.9-11-11-11H22v-28.3c0-6.1,4.9-11,11-11h303.3c0,0,0.1,0,0.1,0c0,0,0,0,0.1,0h142.4
	c6.1,0,11,4.9,11,11v28.3h-43.7c-6.1,0-11,4.9-11,11v194.5c0,6.1,4.9,11,11,11H490L490,420.5L490,420.5z M490,370.2h-32.6V197.7H490
	V370.2z"/>
<g>
	<g>
		<path class="st0" d="M256,243.4c-22.4,0-40.5,18.2-40.5,40.5c0,5.5,4.4,9.9,9.9,9.9s9.9-4.4,9.9-9.9c0-11.4,9.3-20.7,20.7-20.7
			c5.5,0,9.9-4.4,9.9-9.9S261.5,243.4,256,243.4z"/>
	</g>
</g>
</svg>
