<?xml version="1.0" encoding="utf-8"?>
<!-- Generator: Adobe Illustrator 21.1.0, SVG Export Plug-In . SVG Version: 6.00 Build 0)  -->
<svg version="1.1" id="Capa_1" xmlns="http://www.w3.org/2000/svg" xmlns:xlink="http://www.w3.org/1999/xlink" x="0px" y="0px"
	 viewBox="0 0 470 470" style="enable-background:new 0 0 470 470;" xml:space="preserve">
<style type="text/css">
	.st0{fill:#02894B;}
	.st1{fill:#545454;}
</style>
<path class="st0" d="M330.8,123.9h12.5v12.5c0,4.1,3.4,7.5,7.5,7.5s7.5-3.4,7.5-7.5v-12.5h12.5c4.1,0,7.5-3.4,7.5-7.5
	s-3.4-7.5-7.5-7.5h-12.5V96.4c0-4.1-3.4-7.5-7.5-7.5s-7.5,3.4-7.5,7.5v12.5h-12.5c-4.1,0-7.5,3.4-7.5,7.5S326.6,123.9,330.8,123.9z"
	/>
<path class="st0" d="M263.9,180.6c3.8,1.6,8.2-0.2,9.8-4.1l10.7-25.8h28.7l10.7,25.8c1.2,2.9,4,4.6,6.9,4.6c1,0,1.9-0.2,2.9-0.6
	c3.8-1.6,5.6-6,4.1-9.8l-12.6-30.5c0,0,0-0.1,0-0.1l-19.3-46.7c-1.2-2.8-3.9-4.6-6.9-4.6s-5.8,1.8-6.9,4.6l-19.3,46.7
	c0,0,0,0.1,0,0.1l-12.6,30.5C258.2,174.6,260.1,179,263.9,180.6z M298.8,116l8.2,19.7h-16.3L298.8,116z"/>
<path class="st0" d="M117.5,75H185c4.1,0,7.5-3.4,7.5-7.5S189.1,60,185,60h-67.5c-4.1,0-7.5,3.4-7.5,7.5S113.4,75,117.5,75z"/>
<path class="st0" d="M117.5,120H185c4.1,0,7.5-3.4,7.5-7.5s-3.4-7.5-7.5-7.5h-67.5c-4.1,0-7.5,3.4-7.5,7.5S113.4,120,117.5,120z"/>
<path class="st0" d="M117.5,165H185c4.1,0,7.5-3.4,7.5-7.5s-3.4-7.5-7.5-7.5h-67.5c-4.1,0-7.5,3.4-7.5,7.5S113.4,165,117.5,165z"/>
<path class="st0" d="M117.5,210H185c4.1,0,7.5-3.4,7.5-7.5s-3.4-7.5-7.5-7.5h-67.5c-4.1,0-7.5,3.4-7.5,7.5S113.4,210,117.5,210z"/>
<path class="st1" d="M469,466.3c0.1-0.1,0.1-0.2,0.2-0.3c0.1-0.1,0.1-0.2,0.2-0.3c0.1-0.1,0.1-0.2,0.1-0.3c0-0.1,0.1-0.2,0.1-0.3
	c0-0.1,0.1-0.2,0.1-0.3c0-0.1,0.1-0.3,0.1-0.4c0-0.1,0.1-0.2,0.1-0.3c0-0.1,0-0.3,0.1-0.4c0-0.1,0-0.2,0-0.3c0-0.1,0-0.3,0-0.4
	c0-0.1,0-0.1,0-0.2V177c0-0.1,0-0.1,0-0.2c0-0.1,0-0.3,0-0.4c0-0.1,0-0.2,0-0.3c0-0.1,0-0.3-0.1-0.4c0-0.1,0-0.2-0.1-0.3
	c0-0.1-0.1-0.3-0.1-0.4c0-0.1-0.1-0.2-0.1-0.3c0-0.1-0.1-0.2-0.1-0.3c0-0.1-0.1-0.2-0.1-0.3c0-0.1-0.1-0.2-0.2-0.3
	c-0.1-0.1-0.1-0.2-0.2-0.3c-0.1-0.1-0.1-0.2-0.2-0.3c-0.1-0.1-0.2-0.2-0.2-0.3c0-0.1-0.1-0.1-0.1-0.2c0,0,0,0-0.1-0.1
	c-0.1-0.1-0.2-0.2-0.3-0.3c-0.1-0.1-0.2-0.2-0.2-0.3c-0.1-0.1-0.2-0.2-0.3-0.2c-0.1-0.1-0.2-0.2-0.3-0.3c-0.1-0.1-0.2-0.1-0.2-0.2
	c-0.1-0.1-0.2-0.2-0.3-0.3c-0.1-0.1-0.2-0.1-0.3-0.2c-0.1-0.1-0.2-0.1-0.4-0.2c-0.1-0.1-0.2-0.1-0.3-0.2c-0.1,0-0.2-0.1-0.3-0.1
	c-0.1-0.1-0.3-0.1-0.4-0.2c-0.1,0-0.2-0.1-0.3-0.1c-0.1,0-0.3-0.1-0.4-0.1c-0.1,0-0.2-0.1-0.3-0.1c-0.1,0-0.3,0-0.4-0.1
	c-0.1,0-0.2,0-0.3-0.1c-0.1,0-0.2,0-0.3,0c-0.1,0-0.3,0-0.4,0c0,0-0.1,0-0.1,0H410V7.5c0-4.1-3.4-7.5-7.5-7.5h-335
	C63.4,0,60,3.4,60,7.5v162H7.5c0,0-0.1,0-0.1,0c-0.1,0-0.3,0-0.4,0c-0.1,0-0.2,0-0.3,0c-0.1,0-0.2,0-0.4,0.1c-0.1,0-0.3,0-0.4,0.1
	c-0.1,0-0.2,0.1-0.3,0.1c-0.1,0-0.3,0.1-0.4,0.1c-0.1,0-0.2,0.1-0.3,0.1c-0.1,0-0.3,0.1-0.4,0.1c-0.1,0-0.2,0.1-0.3,0.2
	c-0.1,0.1-0.2,0.1-0.3,0.2c-0.1,0.1-0.3,0.2-0.4,0.2c-0.1,0.1-0.2,0.1-0.2,0.1c-0.1,0.1-0.2,0.2-0.4,0.3c-0.1,0.1-0.2,0.1-0.2,0.2
	c-0.1,0.1-0.2,0.2-0.3,0.3c-0.1,0.1-0.2,0.2-0.3,0.2c-0.1,0.1-0.2,0.2-0.2,0.3c-0.1,0.1-0.2,0.2-0.3,0.3c0,0,0,0-0.1,0.1
	c0,0.1-0.1,0.1-0.1,0.2c-0.1,0.1-0.2,0.2-0.2,0.3c-0.1,0.1-0.1,0.2-0.2,0.3c-0.1,0.1-0.1,0.2-0.2,0.3c-0.1,0.1-0.1,0.2-0.2,0.3
	c-0.1,0.1-0.1,0.2-0.1,0.3c0,0.1-0.1,0.2-0.1,0.3c0,0.1-0.1,0.2-0.1,0.3c0,0.1-0.1,0.3-0.1,0.4c0,0.1-0.1,0.2-0.1,0.3
	c0,0.1,0,0.3-0.1,0.4c0,0.1,0,0.2,0,0.3c0,0.1,0,0.3,0,0.4c0,0.1,0,0.1,0,0.2v285.5c0,0.1,0,0.1,0,0.2c0,0.1,0,0.3,0,0.4
	c0,0.1,0,0.2,0,0.3c0,0.1,0,0.3,0.1,0.4c0,0.1,0,0.2,0.1,0.3c0,0.1,0.1,0.3,0.1,0.4c0,0.1,0.1,0.2,0.1,0.3c0,0.1,0.1,0.2,0.1,0.4
	s0.1,0.2,0.1,0.3c0.1,0.1,0.1,0.2,0.2,0.3c0.1,0.1,0.1,0.2,0.2,0.3c0.1,0.1,0.1,0.2,0.2,0.3c0.1,0.1,0.2,0.2,0.2,0.3
	c0,0.1,0.1,0.1,0.1,0.2c0,0,0,0,0.1,0.1c0.1,0.2,0.3,0.3,0.4,0.5c0,0,0.1,0.1,0.1,0.1c0.2,0.2,0.4,0.4,0.6,0.5
	c0.1,0.1,0.2,0.1,0.3,0.2c0.1,0.1,0.3,0.2,0.4,0.3c0.1,0.1,0.2,0.1,0.3,0.2c0.1,0.1,0.3,0.2,0.4,0.2c0.1,0,0.2,0.1,0.3,0.1
	c0.2,0.1,0.3,0.1,0.5,0.2c0.1,0,0.2,0.1,0.2,0.1c0.2,0.1,0.4,0.1,0.6,0.2c0.1,0,0.1,0,0.2,0.1c0.2,0,0.4,0.1,0.6,0.1
	c0.1,0,0.1,0,0.1,0c0.3,0,0.5,0,0.8,0h455c0.3,0,0.5,0,0.8,0c0,0,0.1,0,0.1,0c0.2,0,0.4-0.1,0.7-0.1c0.1,0,0.1,0,0.2-0.1
	c0.2,0,0.4-0.1,0.6-0.2c0.1,0,0.2-0.1,0.2-0.1c0.2-0.1,0.3-0.1,0.5-0.2c0.1,0,0.2-0.1,0.3-0.1c0.1-0.1,0.3-0.2,0.4-0.2
	c0.1-0.1,0.2-0.1,0.3-0.2c0.1-0.1,0.3-0.2,0.4-0.3c0.1-0.1,0.2-0.1,0.2-0.2c0.2-0.2,0.4-0.3,0.6-0.5c0,0,0.1-0.1,0.1-0.1
	c0.2-0.2,0.3-0.3,0.4-0.5c0,0,0,0,0.1-0.1c0-0.1,0.1-0.1,0.1-0.2c0.1-0.1,0.2-0.2,0.2-0.3C468.8,466.5,468.9,466.4,469,466.3z
	 M387.6,394.4c-3.3-2.5-8-2-10.5,1.3c-2.5,3.3-2,8,1.3,10.5l62.4,48.7H29.3l160.9-125.8l40.2,31.4c1.4,1.1,3,1.6,4.6,1.6
	s3.3-0.5,4.6-1.6l40.2-31.4l74.9,58.5c1.4,1.1,3,1.6,4.6,1.6c2.2,0,4.4-1,5.9-2.9c2.5-3.3,2-8-1.3-10.5l-72-56.2l163-127.4v254.8
	L387.6,394.4z M15,192.3l163,127.4L15,447.1V192.3z M440.7,184.5l-30.7,24v-24H440.7z M75,15h320v205.2l-160,125l-160-125V15z
	 M60,208.5l-30.7-24H60V208.5z"/>
<path class="st1" d="M235,321.9c4.1,0,7.5-3.4,7.5-7.5V37.5c0-4.1-3.4-7.5-7.5-7.5s-7.5,3.4-7.5,7.5v276.9
	C227.5,318.5,230.9,321.9,235,321.9z"/>
</svg>
