<?xml version="1.0" encoding="utf-8"?>
<!-- Generator: Adobe Illustrator 21.1.0, SVG Export Plug-In . SVG Version: 6.00 Build 0)  -->
<svg version="1.1" id="Capa_1" xmlns="http://www.w3.org/2000/svg" xmlns:xlink="http://www.w3.org/1999/xlink" x="0px" y="0px"
	 viewBox="0 0 512 512" style="enable-background:new 0 0 512 512;" xml:space="preserve">
<style type="text/css">
	.st0{fill:#545454;}
	.st1{fill:none;stroke:#02894B;stroke-width:25;stroke-linejoin:round;stroke-miterlimit:10;}
</style>
<g>
	<g>
		<g>
			<path class="st0" d="M488.7,279.3c-7,0-11.6,4.7-11.6,11.6v151.3c0,7-4.7,11.6-11.6,11.6H46.5c-7,0-11.6-4.7-11.6-11.6V290.9
				c0-7-4.7-11.6-11.6-11.6s-11.6,4.7-11.6,11.6v151.3c0,19.8,15.1,34.9,34.9,34.9h418.9c19.8,0,34.9-15.1,34.9-34.9V290.9
				C500.4,283.9,495.7,279.3,488.7,279.3z"/>
		</g>
	</g>
	<path class="st0" d="M477.1,116.4H34.9C15.1,116.4,0,131.5,0,151.3v74.5C0,242,11.6,256,26.8,259.5l182.7,40.7v37.2
		c0,7,4.7,11.6,11.6,11.6h69.8c7,0,11.6-4.7,11.6-11.6v-37.2l182.7-40.7C500.4,256,512,242,512,225.7v-74.5
		C512,131.5,496.9,116.4,477.1,116.4z M279.3,325.8h-46.5v-46.5h46.5V325.8z M488.7,225.7c0,5.8-3.5,10.5-9.3,11.6l-176.9,39.6v-9.3
		c0-7-4.7-11.6-11.6-11.6h-69.8c-7,0-11.6,4.7-11.6,11.6v9.3L32.6,237.4c-5.8-1.2-9.3-5.8-9.3-11.6v-74.5c0-7,4.7-11.6,11.6-11.6
		h442.2c7,0,11.6,4.7,11.6,11.6V225.7z"/>
	<g>
		<g>
			<path class="st0" d="M314.2,34.9H197.8c-19.8,0-34.9,15.1-34.9,34.9v11.6c0,7,4.7,11.6,11.6,11.6s11.6-4.7,11.6-11.6V69.8
				c0-7,4.7-11.6,11.6-11.6h116.4c7,0,11.6,4.7,11.6,11.6v11.6c0,7,4.7,11.6,11.6,11.6c7,0,11.6-4.7,11.6-11.6V69.8
				C349.1,50,334,34.9,314.2,34.9z"/>
		</g>
	</g>
	<rect x="221.5" y="268.5" class="st1" width="69" height="69"/>
</g>
</svg>
