<?xml version="1.0" encoding="iso-8859-1"?>
<!-- Generator: Adobe Illustrator 19.0.0, SVG Export Plug-In . SVG Version: 6.00 Build 0)  -->
<svg version="1.1" id="Capa_1" xmlns="http://www.w3.org/2000/svg" xmlns:xlink="http://www.w3.org/1999/xlink" x="0px" y="0px"
	 viewBox="0 0 480 480" style="enable-background:new 0 0 480 480;" xml:space="preserve">
<g>
	<g>
		<g>
			<path d="M240,0C107.452,0,0,107.452,0,240s107.452,240,240,240c132.486-0.15,239.85-107.514,240-240C480,107.452,372.548,0,240,0
				z M240,464C116.288,464,16,363.712,16,240S116.288,16,240,16c123.653,0.141,223.859,100.347,224,224
				C464,363.712,363.712,464,240,464z"/>
			<path d="M240,32C125.125,32,32,125.125,32,240s93.125,208,208,208c114.82-0.132,207.868-93.18,208-208
				C448,125.125,354.875,32,240,32z M240,432c-106.039,0-192-85.961-192-192S133.961,48,240,48
				c105.987,0.123,191.877,86.013,192,192C432,346.039,346.039,432,240,432z"/>
			<path d="M240,112c4.418,0,8-3.582,8-8V72c0-4.418-3.582-8-8-8s-8,3.582-8,8v32C232,108.418,235.582,112,240,112z"/>
			<path d="M240,368c-4.418,0-8,3.582-8,8v32c0,4.418,3.582,8,8,8s8-3.582,8-8v-32C248,371.582,244.418,368,240,368z"/>
			<path d="M104,232H72c-4.418,0-8,3.582-8,8s3.582,8,8,8h32c4.418,0,8-3.582,8-8S108.418,232,104,232z"/>
			<path d="M408,232h-32c-4.418,0-8,3.582-8,8s3.582,8,8,8h32c4.418,0,8-3.582,8-8S412.418,232,408,232z"/>
			<path d="M336.136,143.864c-3.124-3.123-8.188-3.123-11.312,0l-68.664,68.664c-9.978-5.856-22.342-5.856-32.32,0l-34.744-34.744
				c-3.178-3.069-8.243-2.981-11.312,0.197c-2.994,3.1-2.994,8.015,0,11.115l34.744,34.744
				c-8.977,15.172-3.954,34.749,11.219,43.726s34.749,3.954,43.725-11.219c5.931-10.024,5.931-22.483,0-32.507l68.664-68.64
				c3.13-3.118,3.14-8.183,0.022-11.314C336.151,143.879,336.143,143.871,336.136,143.864z M251.336,251.304
				c-6.243,6.254-16.374,6.262-22.627,0.019c-6.254-6.243-6.262-16.374-0.019-22.627c6.243-6.254,16.374-6.262,22.627-0.019
				c0.006,0.006,0.013,0.013,0.019,0.019c6.227,6.255,6.212,16.371-0.032,22.608L251.336,251.304z"/>
		</g>
	</g>
</g>
<g>
</g>
<g>
</g>
<g>
</g>
<g>
</g>
<g>
</g>
<g>
</g>
<g>
</g>
<g>
</g>
<g>
</g>
<g>
</g>
<g>
</g>
<g>
</g>
<g>
</g>
<g>
</g>
<g>
</g>
</svg>
